<?xml version="1.0" encoding="UTF-8" standalone="no"?>
<!DOCTYPE svg PUBLIC "-//W3C//DTD SVG 1.1//EN"
 "http://www.w3.org/Graphics/SVG/1.1/DTD/svg11.dtd">
<!-- Generated by graphviz version 5.0.0 (20220707.1540)
 -->
<!-- Title: UmlClassDiagram Pages: 1 -->
<svg width="940pt" height="542pt"
 viewBox="0.00 0.00 940.15 542.20" xmlns="http://www.w3.org/2000/svg" xmlns:xlink="http://www.w3.org/1999/xlink">
<g id="graph0" class="graph" transform="scale(1 1) rotate(0) translate(4 538.2)">
<title>UmlClassDiagram</title>
<polygon fill="white" stroke="transparent" points="-4,4 -4,-538.2 936.15,-538.2 936.15,4 -4,4"/>
<!-- 0 -->
<g id="node1" class="node">
<title>0</title>
<polygon fill="#f2f2f2" stroke="black" points="163.51,-433.7 163.51,-533.7 321.42,-533.7 321.42,-433.7 163.51,-433.7"/>
<text text-anchor="middle" x="242.47" y="-517.1" font-family="Times,serif" font-size="14.00">&lt;&lt;Abstract&gt;&gt;</text>
<text text-anchor="middle" x="242.47" y="-500.3" font-family="Times,serif" font-size="14.00">Context</text>
<polyline fill="none" stroke="black" points="163.51,-492.1 321.42,-492.1 "/>
<text text-anchor="start" x="171.51" y="-475.5" font-family="Times,serif" font-size="14.00">Internal:</text>
<text text-anchor="start" x="171.51" y="-458.7" font-family="Times,serif" font-size="14.00"> &#160;&#160;&#160;_msgSender(): address</text>
<text text-anchor="start" x="171.51" y="-441.9" font-family="Times,serif" font-size="14.00"> &#160;&#160;&#160;_msgData(): bytes</text>
</g>
<!-- 1 -->
<g id="node2" class="node">
<title>1</title>
<polygon fill="#f2f2f2" stroke="black" points="0,-137.5 0,-396.7 484.93,-396.7 484.93,-137.5 0,-137.5"/>
<text text-anchor="middle" x="242.47" y="-380.1" font-family="Times,serif" font-size="14.00">&lt;&lt;Abstract&gt;&gt;</text>
<text text-anchor="middle" x="242.47" y="-363.3" font-family="Times,serif" font-size="14.00">Ownable</text>
<polyline fill="none" stroke="black" points="0,-355.1 484.93,-355.1 "/>
<text text-anchor="start" x="8" y="-338.5" font-family="Times,serif" font-size="14.00">Private:</text>
<text text-anchor="start" x="8" y="-321.7" font-family="Times,serif" font-size="14.00"> &#160;&#160;_owner: address</text>
<polyline fill="none" stroke="black" points="0,-313.5 484.93,-313.5 "/>
<text text-anchor="start" x="8" y="-296.9" font-family="Times,serif" font-size="14.00">Internal:</text>
<text text-anchor="start" x="8" y="-280.1" font-family="Times,serif" font-size="14.00"> &#160;&#160;&#160;_checkOwner()</text>
<text text-anchor="start" x="8" y="-263.3" font-family="Times,serif" font-size="14.00"> &#160;&#160;&#160;_transferOwnership(newOwner: address)</text>
<text text-anchor="start" x="8" y="-246.5" font-family="Times,serif" font-size="14.00">Public:</text>
<text text-anchor="start" x="8" y="-229.7" font-family="Times,serif" font-size="14.00"> &#160;&#160;&#160;&lt;&lt;event&gt;&gt; OwnershipTransferred(previousOwner: address, newOwner: address)</text>
<text text-anchor="start" x="8" y="-212.9" font-family="Times,serif" font-size="14.00"> &#160;&#160;&#160;&lt;&lt;modifier&gt;&gt; onlyOwner()</text>
<text text-anchor="start" x="8" y="-196.1" font-family="Times,serif" font-size="14.00"> &#160;&#160;&#160;constructor(initialOwner: address)</text>
<text text-anchor="start" x="8" y="-179.3" font-family="Times,serif" font-size="14.00"> &#160;&#160;&#160;owner(): address</text>
<text text-anchor="start" x="8" y="-162.5" font-family="Times,serif" font-size="14.00"> &#160;&#160;&#160;renounceOwnership() &lt;&lt;onlyOwner&gt;&gt;</text>
<text text-anchor="start" x="8" y="-145.7" font-family="Times,serif" font-size="14.00"> &#160;&#160;&#160;transferOwnership(newOwner: address) &lt;&lt;onlyOwner&gt;&gt;</text>
</g>
<!-- 1&#45;&gt;0 -->
<g id="edge1" class="edge">
<title>1&#45;&gt;0</title>
<path fill="none" stroke="black" d="M242.47,-396.96C242.47,-399.06 242.47,-401.15 242.47,-403.23"/>
<polygon fill="none" stroke="black" points="231.97,-403.36 242.47,-433.36 252.97,-403.36 231.97,-403.36"/>
</g>
<!-- 2 -->
<g id="node3" class="node">
<title>2</title>
<polygon fill="#f2f2f2" stroke="black" points="502.78,-158.3 502.78,-375.9 932.15,-375.9 932.15,-158.3 502.78,-158.3"/>
<text text-anchor="middle" x="717.47" y="-359.3" font-family="Times,serif" font-size="14.00">&lt;&lt;Interface&gt;&gt;</text>
<text text-anchor="middle" x="717.47" y="-342.5" font-family="Times,serif" font-size="14.00">IERC20</text>
<polyline fill="none" stroke="black" points="502.78,-334.3 932.15,-334.3 "/>
<text text-anchor="start" x="510.78" y="-317.7" font-family="Times,serif" font-size="14.00">External:</text>
<text text-anchor="start" x="510.78" y="-300.9" font-family="Times,serif" font-size="14.00"> &#160;&#160;&#160;&#160;totalSupply(): uint256</text>
<text text-anchor="start" x="510.78" y="-284.1" font-family="Times,serif" font-size="14.00"> &#160;&#160;&#160;&#160;balanceOf(account: address): uint256</text>
<text text-anchor="start" x="510.78" y="-267.3" font-family="Times,serif" font-size="14.00"> &#160;&#160;&#160;&#160;transfer(to: address, value: uint256): bool</text>
<text text-anchor="start" x="510.78" y="-250.5" font-family="Times,serif" font-size="14.00"> &#160;&#160;&#160;&#160;allowance(owner: address, spender: address): uint256</text>
<text text-anchor="start" x="510.78" y="-233.7" font-family="Times,serif" font-size="14.00"> &#160;&#160;&#160;&#160;approve(spender: address, value: uint256): bool</text>
<text text-anchor="start" x="510.78" y="-216.9" font-family="Times,serif" font-size="14.00"> &#160;&#160;&#160;&#160;transferFrom(from: address, to: address, value: uint256): bool</text>
<text text-anchor="start" x="510.78" y="-200.1" font-family="Times,serif" font-size="14.00">Public:</text>
<text text-anchor="start" x="510.78" y="-183.3" font-family="Times,serif" font-size="14.00"> &#160;&#160;&#160;&lt;&lt;event&gt;&gt; Transfer(from: address, to: address, value: uint256)</text>
<text text-anchor="start" x="510.78" y="-166.5" font-family="Times,serif" font-size="14.00"> &#160;&#160;&#160;&lt;&lt;event&gt;&gt; Approval(owner: address, spender: address, value: uint256)</text>
</g>
<!-- 3 -->
<g id="node4" class="node">
<title>3</title>
<polygon fill="#f2f2f2" stroke="black" points="1.91,-0.5 1.91,-100.5 483.02,-100.5 483.02,-0.5 1.91,-0.5"/>
<text text-anchor="middle" x="242.47" y="-83.9" font-family="Times,serif" font-size="14.00">&lt;&lt;Abstract&gt;&gt;</text>
<text text-anchor="middle" x="242.47" y="-67.1" font-family="Times,serif" font-size="14.00">ERC20Recover</text>
<polyline fill="none" stroke="black" points="1.91,-58.9 483.02,-58.9 "/>
<text text-anchor="start" x="9.91" y="-42.3" font-family="Times,serif" font-size="14.00">Public:</text>
<text text-anchor="start" x="9.91" y="-25.5" font-family="Times,serif" font-size="14.00"> &#160;&#160;&#160;constructor(originalOwner: address)</text>
<text text-anchor="start" x="9.91" y="-8.7" font-family="Times,serif" font-size="14.00"> &#160;&#160;&#160;recoverERC20(tokenAddress: address, tokenAmount: uint256) &lt;&lt;onlyOwner&gt;&gt;</text>
</g>
<!-- 3&#45;&gt;1 -->
<g id="edge2" class="edge">
<title>3&#45;&gt;1</title>
<path fill="none" stroke="black" d="M242.47,-100.73C242.47,-102.84 242.47,-105 242.47,-107.19"/>
<polygon fill="none" stroke="black" points="231.97,-107.39 242.47,-137.39 252.97,-107.39 231.97,-107.39"/>
</g>
<!-- 3&#45;&gt;2 -->
<g id="edge3" class="edge">
<title>3&#45;&gt;2</title>
<path fill="none" stroke="black" stroke-dasharray="5,2" d="M401.95,-100.6C432.74,-111.54 464.43,-123.84 493.47,-137 504.95,-142.21 516.61,-147.82 528.27,-153.7"/>
<polygon fill="black" stroke="black" points="526.68,-156.82 537.18,-158.24 529.86,-150.58 526.68,-156.82"/>
</g>
</g>
</svg>
