<?xml version="1.0" encoding="UTF-8" standalone="no"?>
<!DOCTYPE svg PUBLIC "-//W3C//DTD SVG 1.1//EN"
 "http://www.w3.org/Graphics/SVG/1.1/DTD/svg11.dtd">
<!-- Generated by graphviz version 5.0.0 (20220707.1540)
 -->
<!-- Title: UmlClassDiagram Pages: 1 -->
<svg width="1078pt" height="861pt"
 viewBox="0.00 0.00 1078.11 861.20" xmlns="http://www.w3.org/2000/svg" xmlns:xlink="http://www.w3.org/1999/xlink">
<g id="graph0" class="graph" transform="scale(1 1) rotate(0) translate(4 857.2)">
<title>UmlClassDiagram</title>
<polygon fill="white" stroke="transparent" points="-4,4 -4,-857.2 1074.11,-857.2 1074.11,4 -4,4"/>
<!-- 0 -->
<g id="node1" class="node">
<title>0</title>
<polygon fill="#f2f2f2" stroke="black" points="136.29,-530.7 136.29,-647.5 348.64,-647.5 348.64,-530.7 136.29,-530.7"/>
<text text-anchor="middle" x="242.47" y="-630.9" font-family="Times,serif" font-size="14.00">&lt;&lt;Abstract&gt;&gt;</text>
<text text-anchor="middle" x="242.47" y="-614.1" font-family="Times,serif" font-size="14.00">Context</text>
<polyline fill="none" stroke="black" points="136.29,-605.9 348.64,-605.9 "/>
<text text-anchor="start" x="144.29" y="-589.3" font-family="Times,serif" font-size="14.00">Internal:</text>
<text text-anchor="start" x="144.29" y="-572.5" font-family="Times,serif" font-size="14.00"> &#160;&#160;&#160;_msgSender(): address</text>
<text text-anchor="start" x="144.29" y="-555.7" font-family="Times,serif" font-size="14.00"> &#160;&#160;&#160;_msgData(): bytes</text>
<text text-anchor="start" x="144.29" y="-538.9" font-family="Times,serif" font-size="14.00"> &#160;&#160;&#160;_contextSuffixLength(): uint256</text>
</g>
<!-- 1 -->
<g id="node2" class="node">
<title>1</title>
<polygon fill="#f2f2f2" stroke="black" points="0,-138.5 0,-397.7 484.93,-397.7 484.93,-138.5 0,-138.5"/>
<text text-anchor="middle" x="242.47" y="-381.1" font-family="Times,serif" font-size="14.00">&lt;&lt;Abstract&gt;&gt;</text>
<text text-anchor="middle" x="242.47" y="-364.3" font-family="Times,serif" font-size="14.00">Ownable</text>
<polyline fill="none" stroke="black" points="0,-356.1 484.93,-356.1 "/>
<text text-anchor="start" x="8" y="-339.5" font-family="Times,serif" font-size="14.00">Private:</text>
<text text-anchor="start" x="8" y="-322.7" font-family="Times,serif" font-size="14.00"> &#160;&#160;_owner: address</text>
<polyline fill="none" stroke="black" points="0,-314.5 484.93,-314.5 "/>
<text text-anchor="start" x="8" y="-297.9" font-family="Times,serif" font-size="14.00">Internal:</text>
<text text-anchor="start" x="8" y="-281.1" font-family="Times,serif" font-size="14.00"> &#160;&#160;&#160;_checkOwner()</text>
<text text-anchor="start" x="8" y="-264.3" font-family="Times,serif" font-size="14.00"> &#160;&#160;&#160;_transferOwnership(newOwner: address)</text>
<text text-anchor="start" x="8" y="-247.5" font-family="Times,serif" font-size="14.00">Public:</text>
<text text-anchor="start" x="8" y="-230.7" font-family="Times,serif" font-size="14.00"> &#160;&#160;&#160;&lt;&lt;event&gt;&gt; OwnershipTransferred(previousOwner: address, newOwner: address)</text>
<text text-anchor="start" x="8" y="-213.9" font-family="Times,serif" font-size="14.00"> &#160;&#160;&#160;&lt;&lt;modifier&gt;&gt; onlyOwner()</text>
<text text-anchor="start" x="8" y="-197.1" font-family="Times,serif" font-size="14.00"> &#160;&#160;&#160;constructor(initialOwner: address)</text>
<text text-anchor="start" x="8" y="-180.3" font-family="Times,serif" font-size="14.00"> &#160;&#160;&#160;owner(): address</text>
<text text-anchor="start" x="8" y="-163.5" font-family="Times,serif" font-size="14.00"> &#160;&#160;&#160;renounceOwnership() &lt;&lt;onlyOwner&gt;&gt;</text>
<text text-anchor="start" x="8" y="-146.7" font-family="Times,serif" font-size="14.00"> &#160;&#160;&#160;transferOwnership(newOwner: address) &lt;&lt;onlyOwner&gt;&gt;</text>
</g>
<!-- 1&#45;&gt;0 -->
<g id="edge1" class="edge">
<title>1&#45;&gt;0</title>
<path fill="none" stroke="black" d="M242.47,-397.93C242.47,-432.25 242.47,-468.53 242.47,-500.11"/>
<polygon fill="none" stroke="black" points="231.97,-500.44 242.47,-530.44 252.97,-500.44 231.97,-500.44"/>
</g>
<!-- 2 -->
<g id="node3" class="node">
<title>2</title>
<polygon fill="#f2f2f2" stroke="black" points="648.04,-769.5 648.04,-852.7 924.89,-852.7 924.89,-769.5 648.04,-769.5"/>
<text text-anchor="middle" x="786.47" y="-836.1" font-family="Times,serif" font-size="14.00">&lt;&lt;Interface&gt;&gt;</text>
<text text-anchor="middle" x="786.47" y="-819.3" font-family="Times,serif" font-size="14.00">IERC165</text>
<polyline fill="none" stroke="black" points="648.04,-811.1 924.89,-811.1 "/>
<text text-anchor="start" x="656.04" y="-794.5" font-family="Times,serif" font-size="14.00">External:</text>
<text text-anchor="start" x="656.04" y="-777.7" font-family="Times,serif" font-size="14.00"> &#160;&#160;&#160;&#160;supportsInterface(interfaceId: bytes4): bool</text>
</g>
<!-- 3 -->
<g id="node4" class="node">
<title>3</title>
<polygon fill="#f2f2f2" stroke="black" points="549.62,-446.7 549.62,-731.5 1023.31,-731.5 1023.31,-446.7 549.62,-446.7"/>
<text text-anchor="middle" x="786.47" y="-714.9" font-family="Times,serif" font-size="14.00">&lt;&lt;Interface&gt;&gt;</text>
<text text-anchor="middle" x="786.47" y="-698.1" font-family="Times,serif" font-size="14.00">IERC721</text>
<polyline fill="none" stroke="black" points="549.62,-689.9 1023.31,-689.9 "/>
<text text-anchor="start" x="557.62" y="-673.3" font-family="Times,serif" font-size="14.00">External:</text>
<text text-anchor="start" x="557.62" y="-656.5" font-family="Times,serif" font-size="14.00"> &#160;&#160;&#160;&#160;balanceOf(owner: address): (balance: uint256)</text>
<text text-anchor="start" x="557.62" y="-639.7" font-family="Times,serif" font-size="14.00"> &#160;&#160;&#160;&#160;ownerOf(tokenId: uint256): (owner: address)</text>
<text text-anchor="start" x="557.62" y="-622.9" font-family="Times,serif" font-size="14.00"> &#160;&#160;&#160;&#160;safeTransferFrom(from: address, to: address, tokenId: uint256, data: bytes)</text>
<text text-anchor="start" x="557.62" y="-606.1" font-family="Times,serif" font-size="14.00"> &#160;&#160;&#160;&#160;safeTransferFrom(from: address, to: address, tokenId: uint256)</text>
<text text-anchor="start" x="557.62" y="-589.3" font-family="Times,serif" font-size="14.00"> &#160;&#160;&#160;&#160;transferFrom(from: address, to: address, tokenId: uint256)</text>
<text text-anchor="start" x="557.62" y="-572.5" font-family="Times,serif" font-size="14.00"> &#160;&#160;&#160;&#160;approve(to: address, tokenId: uint256)</text>
<text text-anchor="start" x="557.62" y="-555.7" font-family="Times,serif" font-size="14.00"> &#160;&#160;&#160;&#160;setApprovalForAll(operator: address, approved: bool)</text>
<text text-anchor="start" x="557.62" y="-538.9" font-family="Times,serif" font-size="14.00"> &#160;&#160;&#160;&#160;getApproved(tokenId: uint256): (operator: address)</text>
<text text-anchor="start" x="557.62" y="-522.1" font-family="Times,serif" font-size="14.00"> &#160;&#160;&#160;&#160;isApprovedForAll(owner: address, operator: address): bool</text>
<text text-anchor="start" x="557.62" y="-505.3" font-family="Times,serif" font-size="14.00">Public:</text>
<text text-anchor="start" x="557.62" y="-488.5" font-family="Times,serif" font-size="14.00"> &#160;&#160;&#160;&lt;&lt;event&gt;&gt; Transfer(from: address, to: address, tokenId: uint256)</text>
<text text-anchor="start" x="557.62" y="-471.7" font-family="Times,serif" font-size="14.00"> &#160;&#160;&#160;&lt;&lt;event&gt;&gt; Approval(owner: address, approved: address, tokenId: uint256)</text>
<text text-anchor="start" x="557.62" y="-454.9" font-family="Times,serif" font-size="14.00"> &#160;&#160;&#160;&lt;&lt;event&gt;&gt; ApprovalForAll(owner: address, operator: address, approved: bool)</text>
</g>
<!-- 3&#45;&gt;2 -->
<g id="edge2" class="edge">
<title>3&#45;&gt;2</title>
<path fill="none" stroke="black" stroke-dasharray="5,2" d="M786.47,-731.61C786.47,-734.14 786.47,-736.65 786.47,-739.13"/>
<polygon fill="none" stroke="black" points="775.97,-739.15 786.47,-769.15 796.97,-739.15 775.97,-739.15"/>
</g>
<!-- 4 -->
<g id="node5" class="node">
<title>4</title>
<polygon fill="#f2f2f2" stroke="black" points="502.82,-226.5 502.82,-309.7 1070.11,-309.7 1070.11,-226.5 502.82,-226.5"/>
<text text-anchor="middle" x="786.47" y="-293.1" font-family="Times,serif" font-size="14.00">&lt;&lt;Abstract&gt;&gt;</text>
<text text-anchor="middle" x="786.47" y="-276.3" font-family="Times,serif" font-size="14.00">RecoverERC721</text>
<polyline fill="none" stroke="black" points="502.82,-268.1 1070.11,-268.1 "/>
<text text-anchor="start" x="510.82" y="-251.5" font-family="Times,serif" font-size="14.00">Internal:</text>
<text text-anchor="start" x="510.82" y="-234.7" font-family="Times,serif" font-size="14.00"> &#160;&#160;&#160;_recoverERC721(tokenAddress: address, tokenReceiver: address, tokenId: uint256, data: bytes)</text>
</g>
<!-- 4&#45;&gt;3 -->
<g id="edge3" class="edge">
<title>4&#45;&gt;3</title>
<path fill="none" stroke="black" stroke-dasharray="5,2" d="M786.47,-309.83C786.47,-342.22 786.47,-389.69 786.47,-436.28"/>
<polygon fill="black" stroke="black" points="782.97,-436.52 786.47,-446.52 789.97,-436.52 782.97,-436.52"/>
<text text-anchor="start" x="786.47" y="-419.2" font-family="Times,serif" font-size="10.00">safeTransferFrom</text>
</g>
<!-- 5 -->
<g id="node6" class="node">
<title>5</title>
<polygon fill="#f2f2f2" stroke="black" points="184.28,-0.5 184.28,-100.5 842.65,-100.5 842.65,-0.5 184.28,-0.5"/>
<text text-anchor="middle" x="513.47" y="-83.9" font-family="Times,serif" font-size="14.00">&lt;&lt;Abstract&gt;&gt;</text>
<text text-anchor="middle" x="513.47" y="-67.1" font-family="Times,serif" font-size="14.00">ERC721Recover</text>
<polyline fill="none" stroke="black" points="184.28,-58.9 842.65,-58.9 "/>
<text text-anchor="start" x="192.28" y="-42.3" font-family="Times,serif" font-size="14.00">Public:</text>
<text text-anchor="start" x="192.28" y="-25.5" font-family="Times,serif" font-size="14.00"> &#160;&#160;&#160;constructor(initialOwner: address)</text>
<text text-anchor="start" x="192.28" y="-8.7" font-family="Times,serif" font-size="14.00"> &#160;&#160;&#160;recoverERC721(tokenAddress: address, tokenReceiver: address, tokenId: uint256, data: bytes) &lt;&lt;onlyOwner&gt;&gt;</text>
</g>
<!-- 5&#45;&gt;1 -->
<g id="edge4" class="edge">
<title>5&#45;&gt;1</title>
<path fill="none" stroke="black" d="M451.63,-100.69C444.14,-106.65 436.22,-112.96 428.01,-119.49"/>
<polygon fill="none" stroke="black" points="421.19,-111.5 404.25,-138.39 434.26,-127.93 421.19,-111.5"/>
</g>
<!-- 5&#45;&gt;4 -->
<g id="edge5" class="edge">
<title>5&#45;&gt;4</title>
<path fill="none" stroke="black" d="M575.76,-100.69C616.01,-132.48 668.64,-174.04 711.22,-207.68"/>
<polygon fill="none" stroke="black" points="704.92,-216.08 734.97,-226.43 717.93,-199.6 704.92,-216.08"/>
</g>
</g>
</svg>
