<?xml version="1.0" encoding="UTF-8" standalone="no"?>
<!DOCTYPE svg PUBLIC "-//W3C//DTD SVG 1.1//EN"
 "http://www.w3.org/Graphics/SVG/1.1/DTD/svg11.dtd">
<!-- Generated by graphviz version 5.0.0 (20220707.1540)
 -->
<!-- Title: UmlClassDiagram Pages: 1 -->
<svg width="1078pt" height="847pt"
 viewBox="0.00 0.00 1078.11 847.20" xmlns="http://www.w3.org/2000/svg" xmlns:xlink="http://www.w3.org/1999/xlink">
<g id="graph0" class="graph" transform="scale(1 1) rotate(0) translate(4 843.2)">
<title>UmlClassDiagram</title>
<polygon fill="white" stroke="transparent" points="-4,4 -4,-843.2 1074.11,-843.2 1074.11,4 -4,4"/>
<!-- 0 -->
<g id="node1" class="node">
<title>0</title>
<polygon fill="#f2f2f2" stroke="black" points="163.51,-526.1 163.51,-626.1 321.42,-626.1 321.42,-526.1 163.51,-526.1"/>
<text text-anchor="middle" x="242.47" y="-609.5" font-family="Times,serif" font-size="14.00">&lt;&lt;Abstract&gt;&gt;</text>
<text text-anchor="middle" x="242.47" y="-592.7" font-family="Times,serif" font-size="14.00">Context</text>
<polyline fill="none" stroke="black" points="163.51,-584.5 321.42,-584.5 "/>
<text text-anchor="start" x="171.51" y="-567.9" font-family="Times,serif" font-size="14.00">Internal:</text>
<text text-anchor="start" x="171.51" y="-551.1" font-family="Times,serif" font-size="14.00"> &#160;&#160;&#160;_msgSender(): address</text>
<text text-anchor="start" x="171.51" y="-534.3" font-family="Times,serif" font-size="14.00"> &#160;&#160;&#160;_msgData(): bytes</text>
</g>
<!-- 1 -->
<g id="node2" class="node">
<title>1</title>
<polygon fill="#f2f2f2" stroke="black" points="0,-137.5 0,-396.7 484.93,-396.7 484.93,-137.5 0,-137.5"/>
<text text-anchor="middle" x="242.47" y="-380.1" font-family="Times,serif" font-size="14.00">&lt;&lt;Abstract&gt;&gt;</text>
<text text-anchor="middle" x="242.47" y="-363.3" font-family="Times,serif" font-size="14.00">Ownable</text>
<polyline fill="none" stroke="black" points="0,-355.1 484.93,-355.1 "/>
<text text-anchor="start" x="8" y="-338.5" font-family="Times,serif" font-size="14.00">Private:</text>
<text text-anchor="start" x="8" y="-321.7" font-family="Times,serif" font-size="14.00"> &#160;&#160;_owner: address</text>
<polyline fill="none" stroke="black" points="0,-313.5 484.93,-313.5 "/>
<text text-anchor="start" x="8" y="-296.9" font-family="Times,serif" font-size="14.00">Internal:</text>
<text text-anchor="start" x="8" y="-280.1" font-family="Times,serif" font-size="14.00"> &#160;&#160;&#160;_checkOwner()</text>
<text text-anchor="start" x="8" y="-263.3" font-family="Times,serif" font-size="14.00"> &#160;&#160;&#160;_transferOwnership(newOwner: address)</text>
<text text-anchor="start" x="8" y="-246.5" font-family="Times,serif" font-size="14.00">Public:</text>
<text text-anchor="start" x="8" y="-229.7" font-family="Times,serif" font-size="14.00"> &#160;&#160;&#160;&lt;&lt;event&gt;&gt; OwnershipTransferred(previousOwner: address, newOwner: address)</text>
<text text-anchor="start" x="8" y="-212.9" font-family="Times,serif" font-size="14.00"> &#160;&#160;&#160;&lt;&lt;modifier&gt;&gt; onlyOwner()</text>
<text text-anchor="start" x="8" y="-196.1" font-family="Times,serif" font-size="14.00"> &#160;&#160;&#160;constructor(initialOwner: address)</text>
<text text-anchor="start" x="8" y="-179.3" font-family="Times,serif" font-size="14.00"> &#160;&#160;&#160;owner(): address</text>
<text text-anchor="start" x="8" y="-162.5" font-family="Times,serif" font-size="14.00"> &#160;&#160;&#160;renounceOwnership() &lt;&lt;onlyOwner&gt;&gt;</text>
<text text-anchor="start" x="8" y="-145.7" font-family="Times,serif" font-size="14.00"> &#160;&#160;&#160;transferOwnership(newOwner: address) &lt;&lt;onlyOwner&gt;&gt;</text>
</g>
<!-- 1&#45;&gt;0 -->
<g id="edge1" class="edge">
<title>1&#45;&gt;0</title>
<path fill="none" stroke="black" d="M242.47,-396.96C242.47,-430.46 242.47,-465.57 242.47,-495.68"/>
<polygon fill="none" stroke="black" points="231.97,-496.07 242.47,-526.07 252.97,-496.07 231.97,-496.07"/>
</g>
<!-- 2 -->
<g id="node3" class="node">
<title>2</title>
<polygon fill="#f2f2f2" stroke="black" points="648.04,-755.5 648.04,-838.7 924.89,-838.7 924.89,-755.5 648.04,-755.5"/>
<text text-anchor="middle" x="786.47" y="-822.1" font-family="Times,serif" font-size="14.00">&lt;&lt;Interface&gt;&gt;</text>
<text text-anchor="middle" x="786.47" y="-805.3" font-family="Times,serif" font-size="14.00">IERC165</text>
<polyline fill="none" stroke="black" points="648.04,-797.1 924.89,-797.1 "/>
<text text-anchor="start" x="656.04" y="-780.5" font-family="Times,serif" font-size="14.00">External:</text>
<text text-anchor="start" x="656.04" y="-763.7" font-family="Times,serif" font-size="14.00"> &#160;&#160;&#160;&#160;supportsInterface(interfaceId: bytes4): bool</text>
</g>
<!-- 3 -->
<g id="node4" class="node">
<title>3</title>
<polygon fill="#f2f2f2" stroke="black" points="549.62,-433.7 549.62,-718.5 1023.31,-718.5 1023.31,-433.7 549.62,-433.7"/>
<text text-anchor="middle" x="786.47" y="-701.9" font-family="Times,serif" font-size="14.00">&lt;&lt;Interface&gt;&gt;</text>
<text text-anchor="middle" x="786.47" y="-685.1" font-family="Times,serif" font-size="14.00">IERC721</text>
<polyline fill="none" stroke="black" points="549.62,-676.9 1023.31,-676.9 "/>
<text text-anchor="start" x="557.62" y="-660.3" font-family="Times,serif" font-size="14.00">External:</text>
<text text-anchor="start" x="557.62" y="-643.5" font-family="Times,serif" font-size="14.00"> &#160;&#160;&#160;&#160;balanceOf(owner: address): (balance: uint256)</text>
<text text-anchor="start" x="557.62" y="-626.7" font-family="Times,serif" font-size="14.00"> &#160;&#160;&#160;&#160;ownerOf(tokenId: uint256): (owner: address)</text>
<text text-anchor="start" x="557.62" y="-609.9" font-family="Times,serif" font-size="14.00"> &#160;&#160;&#160;&#160;safeTransferFrom(from: address, to: address, tokenId: uint256, data: bytes)</text>
<text text-anchor="start" x="557.62" y="-593.1" font-family="Times,serif" font-size="14.00"> &#160;&#160;&#160;&#160;safeTransferFrom(from: address, to: address, tokenId: uint256)</text>
<text text-anchor="start" x="557.62" y="-576.3" font-family="Times,serif" font-size="14.00"> &#160;&#160;&#160;&#160;transferFrom(from: address, to: address, tokenId: uint256)</text>
<text text-anchor="start" x="557.62" y="-559.5" font-family="Times,serif" font-size="14.00"> &#160;&#160;&#160;&#160;approve(to: address, tokenId: uint256)</text>
<text text-anchor="start" x="557.62" y="-542.7" font-family="Times,serif" font-size="14.00"> &#160;&#160;&#160;&#160;setApprovalForAll(operator: address, approved: bool)</text>
<text text-anchor="start" x="557.62" y="-525.9" font-family="Times,serif" font-size="14.00"> &#160;&#160;&#160;&#160;getApproved(tokenId: uint256): (operator: address)</text>
<text text-anchor="start" x="557.62" y="-509.1" font-family="Times,serif" font-size="14.00"> &#160;&#160;&#160;&#160;isApprovedForAll(owner: address, operator: address): bool</text>
<text text-anchor="start" x="557.62" y="-492.3" font-family="Times,serif" font-size="14.00">Public:</text>
<text text-anchor="start" x="557.62" y="-475.5" font-family="Times,serif" font-size="14.00"> &#160;&#160;&#160;&lt;&lt;event&gt;&gt; Transfer(from: address, to: address, tokenId: uint256)</text>
<text text-anchor="start" x="557.62" y="-458.7" font-family="Times,serif" font-size="14.00"> &#160;&#160;&#160;&lt;&lt;event&gt;&gt; Approval(owner: address, approved: address, tokenId: uint256)</text>
<text text-anchor="start" x="557.62" y="-441.9" font-family="Times,serif" font-size="14.00"> &#160;&#160;&#160;&lt;&lt;event&gt;&gt; ApprovalForAll(owner: address, operator: address, approved: bool)</text>
</g>
<!-- 3&#45;&gt;2 -->
<g id="edge2" class="edge">
<title>3&#45;&gt;2</title>
<path fill="none" stroke="black" stroke-dasharray="5,2" d="M786.47,-718.58C786.47,-720.75 786.47,-722.89 786.47,-725.02"/>
<polygon fill="none" stroke="black" points="775.97,-725.28 786.47,-755.28 796.97,-725.28 775.97,-725.28"/>
</g>
<!-- 4 -->
<g id="node5" class="node">
<title>4</title>
<polygon fill="#f2f2f2" stroke="black" points="502.82,-225.5 502.82,-308.7 1070.11,-308.7 1070.11,-225.5 502.82,-225.5"/>
<text text-anchor="middle" x="786.47" y="-292.1" font-family="Times,serif" font-size="14.00">&lt;&lt;Abstract&gt;&gt;</text>
<text text-anchor="middle" x="786.47" y="-275.3" font-family="Times,serif" font-size="14.00">RecoverERC721</text>
<polyline fill="none" stroke="black" points="502.82,-267.1 1070.11,-267.1 "/>
<text text-anchor="start" x="510.82" y="-250.5" font-family="Times,serif" font-size="14.00">Internal:</text>
<text text-anchor="start" x="510.82" y="-233.7" font-family="Times,serif" font-size="14.00"> &#160;&#160;&#160;_recoverERC721(tokenAddress: address, tokenReceiver: address, tokenId: uint256, data: bytes)</text>
</g>
<!-- 4&#45;&gt;3 -->
<g id="edge3" class="edge">
<title>4&#45;&gt;3</title>
<path fill="none" stroke="black" stroke-dasharray="5,2" d="M786.47,-308.87C786.47,-338.69 786.47,-381.16 786.47,-423.45"/>
<polygon fill="black" stroke="black" points="782.97,-423.61 786.47,-433.61 789.97,-423.61 782.97,-423.61"/>
</g>
<!-- 5 -->
<g id="node6" class="node">
<title>5</title>
<polygon fill="#f2f2f2" stroke="black" points="185.28,-0.5 185.28,-100.5 843.65,-100.5 843.65,-0.5 185.28,-0.5"/>
<text text-anchor="middle" x="514.47" y="-83.9" font-family="Times,serif" font-size="14.00">&lt;&lt;Abstract&gt;&gt;</text>
<text text-anchor="middle" x="514.47" y="-67.1" font-family="Times,serif" font-size="14.00">ERC721Recover</text>
<polyline fill="none" stroke="black" points="185.28,-58.9 843.65,-58.9 "/>
<text text-anchor="start" x="193.28" y="-42.3" font-family="Times,serif" font-size="14.00">Public:</text>
<text text-anchor="start" x="193.28" y="-25.5" font-family="Times,serif" font-size="14.00"> &#160;&#160;&#160;constructor(initialOwner: address)</text>
<text text-anchor="start" x="193.28" y="-8.7" font-family="Times,serif" font-size="14.00"> &#160;&#160;&#160;recoverERC721(tokenAddress: address, tokenReceiver: address, tokenId: uint256, data: bytes) &lt;&lt;onlyOwner&gt;&gt;</text>
</g>
<!-- 5&#45;&gt;1 -->
<g id="edge4" class="edge">
<title>5&#45;&gt;1</title>
<path fill="none" stroke="black" d="M452.06,-100.73C444.82,-106.45 437.17,-112.49 429.25,-118.73"/>
<polygon fill="none" stroke="black" points="422.65,-110.56 405.6,-137.39 435.66,-127.05 422.65,-110.56"/>
</g>
<!-- 5&#45;&gt;4 -->
<g id="edge5" class="edge">
<title>5&#45;&gt;4</title>
<path fill="none" stroke="black" d="M576.87,-100.73C616.86,-132.28 668.99,-173.42 711.26,-206.77"/>
<polygon fill="none" stroke="black" points="704.79,-215.03 734.85,-225.37 717.8,-198.55 704.79,-215.03"/>
</g>
</g>
</svg>
