<?xml version="1.0" encoding="UTF-8" standalone="no"?>
<!DOCTYPE svg PUBLIC "-//W3C//DTD SVG 1.1//EN"
 "http://www.w3.org/Graphics/SVG/1.1/DTD/svg11.dtd">
<!-- Generated by graphviz version 5.0.0 (20220707.1540)
 -->
<!-- Title: UmlClassDiagram Pages: 1 -->
<svg width="1078pt" height="864pt"
 viewBox="0.00 0.00 1078.11 864.00" xmlns="http://www.w3.org/2000/svg" xmlns:xlink="http://www.w3.org/1999/xlink">
<g id="graph0" class="graph" transform="scale(1 1) rotate(0) translate(4 860)">
<title>UmlClassDiagram</title>
<polygon fill="white" stroke="transparent" points="-4,4 -4,-860 1074.11,-860 1074.11,4 -4,4"/>
<!-- 0 -->
<g id="node1" class="node">
<title>0</title>
<polygon fill="#f2f2f2" stroke="black" points="163.51,-542.9 163.51,-642.9 321.42,-642.9 321.42,-542.9 163.51,-542.9"/>
<text text-anchor="middle" x="242.47" y="-626.3" font-family="Times,serif" font-size="14.00">&lt;&lt;Abstract&gt;&gt;</text>
<text text-anchor="middle" x="242.47" y="-609.5" font-family="Times,serif" font-size="14.00">Context</text>
<polyline fill="none" stroke="black" points="163.51,-601.3 321.42,-601.3 "/>
<text text-anchor="start" x="171.51" y="-584.7" font-family="Times,serif" font-size="14.00">Internal:</text>
<text text-anchor="start" x="171.51" y="-567.9" font-family="Times,serif" font-size="14.00"> &#160;&#160;&#160;_msgSender(): address</text>
<text text-anchor="start" x="171.51" y="-551.1" font-family="Times,serif" font-size="14.00"> &#160;&#160;&#160;_msgData(): bytes</text>
</g>
<!-- 1 -->
<g id="node2" class="node">
<title>1</title>
<polygon fill="#f2f2f2" stroke="black" points="0,-154.3 0,-413.5 484.93,-413.5 484.93,-154.3 0,-154.3"/>
<text text-anchor="middle" x="242.47" y="-396.9" font-family="Times,serif" font-size="14.00">&lt;&lt;Abstract&gt;&gt;</text>
<text text-anchor="middle" x="242.47" y="-380.1" font-family="Times,serif" font-size="14.00">Ownable</text>
<polyline fill="none" stroke="black" points="0,-371.9 484.93,-371.9 "/>
<text text-anchor="start" x="8" y="-355.3" font-family="Times,serif" font-size="14.00">Private:</text>
<text text-anchor="start" x="8" y="-338.5" font-family="Times,serif" font-size="14.00"> &#160;&#160;_owner: address</text>
<polyline fill="none" stroke="black" points="0,-330.3 484.93,-330.3 "/>
<text text-anchor="start" x="8" y="-313.7" font-family="Times,serif" font-size="14.00">Internal:</text>
<text text-anchor="start" x="8" y="-296.9" font-family="Times,serif" font-size="14.00"> &#160;&#160;&#160;_checkOwner()</text>
<text text-anchor="start" x="8" y="-280.1" font-family="Times,serif" font-size="14.00"> &#160;&#160;&#160;_transferOwnership(newOwner: address)</text>
<text text-anchor="start" x="8" y="-263.3" font-family="Times,serif" font-size="14.00">Public:</text>
<text text-anchor="start" x="8" y="-246.5" font-family="Times,serif" font-size="14.00"> &#160;&#160;&#160;&lt;&lt;event&gt;&gt; OwnershipTransferred(previousOwner: address, newOwner: address)</text>
<text text-anchor="start" x="8" y="-229.7" font-family="Times,serif" font-size="14.00"> &#160;&#160;&#160;&lt;&lt;modifier&gt;&gt; onlyOwner()</text>
<text text-anchor="start" x="8" y="-212.9" font-family="Times,serif" font-size="14.00"> &#160;&#160;&#160;constructor(initialOwner: address)</text>
<text text-anchor="start" x="8" y="-196.1" font-family="Times,serif" font-size="14.00"> &#160;&#160;&#160;owner(): address</text>
<text text-anchor="start" x="8" y="-179.3" font-family="Times,serif" font-size="14.00"> &#160;&#160;&#160;renounceOwnership() &lt;&lt;onlyOwner&gt;&gt;</text>
<text text-anchor="start" x="8" y="-162.5" font-family="Times,serif" font-size="14.00"> &#160;&#160;&#160;transferOwnership(newOwner: address) &lt;&lt;onlyOwner&gt;&gt;</text>
</g>
<!-- 1&#45;&gt;0 -->
<g id="edge1" class="edge">
<title>1&#45;&gt;0</title>
<path fill="none" stroke="black" d="M242.47,-413.76C242.47,-447.26 242.47,-482.37 242.47,-512.48"/>
<polygon fill="none" stroke="black" points="231.97,-512.87 242.47,-542.87 252.97,-512.87 231.97,-512.87"/>
</g>
<!-- 2 -->
<g id="node3" class="node">
<title>2</title>
<polygon fill="#f2f2f2" stroke="black" points="648.04,-772.3 648.04,-855.5 924.89,-855.5 924.89,-772.3 648.04,-772.3"/>
<text text-anchor="middle" x="786.47" y="-838.9" font-family="Times,serif" font-size="14.00">&lt;&lt;Interface&gt;&gt;</text>
<text text-anchor="middle" x="786.47" y="-822.1" font-family="Times,serif" font-size="14.00">IERC165</text>
<polyline fill="none" stroke="black" points="648.04,-813.9 924.89,-813.9 "/>
<text text-anchor="start" x="656.04" y="-797.3" font-family="Times,serif" font-size="14.00">External:</text>
<text text-anchor="start" x="656.04" y="-780.5" font-family="Times,serif" font-size="14.00"> &#160;&#160;&#160;&#160;supportsInterface(interfaceId: bytes4): bool</text>
</g>
<!-- 3 -->
<g id="node4" class="node">
<title>3</title>
<polygon fill="#f2f2f2" stroke="black" points="549.62,-450.5 549.62,-735.3 1023.31,-735.3 1023.31,-450.5 549.62,-450.5"/>
<text text-anchor="middle" x="786.47" y="-718.7" font-family="Times,serif" font-size="14.00">&lt;&lt;Interface&gt;&gt;</text>
<text text-anchor="middle" x="786.47" y="-701.9" font-family="Times,serif" font-size="14.00">IERC721</text>
<polyline fill="none" stroke="black" points="549.62,-693.7 1023.31,-693.7 "/>
<text text-anchor="start" x="557.62" y="-677.1" font-family="Times,serif" font-size="14.00">External:</text>
<text text-anchor="start" x="557.62" y="-660.3" font-family="Times,serif" font-size="14.00"> &#160;&#160;&#160;&#160;balanceOf(owner: address): (balance: uint256)</text>
<text text-anchor="start" x="557.62" y="-643.5" font-family="Times,serif" font-size="14.00"> &#160;&#160;&#160;&#160;ownerOf(tokenId: uint256): (owner: address)</text>
<text text-anchor="start" x="557.62" y="-626.7" font-family="Times,serif" font-size="14.00"> &#160;&#160;&#160;&#160;safeTransferFrom(from: address, to: address, tokenId: uint256, data: bytes)</text>
<text text-anchor="start" x="557.62" y="-609.9" font-family="Times,serif" font-size="14.00"> &#160;&#160;&#160;&#160;safeTransferFrom(from: address, to: address, tokenId: uint256)</text>
<text text-anchor="start" x="557.62" y="-593.1" font-family="Times,serif" font-size="14.00"> &#160;&#160;&#160;&#160;transferFrom(from: address, to: address, tokenId: uint256)</text>
<text text-anchor="start" x="557.62" y="-576.3" font-family="Times,serif" font-size="14.00"> &#160;&#160;&#160;&#160;approve(to: address, tokenId: uint256)</text>
<text text-anchor="start" x="557.62" y="-559.5" font-family="Times,serif" font-size="14.00"> &#160;&#160;&#160;&#160;setApprovalForAll(operator: address, approved: bool)</text>
<text text-anchor="start" x="557.62" y="-542.7" font-family="Times,serif" font-size="14.00"> &#160;&#160;&#160;&#160;getApproved(tokenId: uint256): (operator: address)</text>
<text text-anchor="start" x="557.62" y="-525.9" font-family="Times,serif" font-size="14.00"> &#160;&#160;&#160;&#160;isApprovedForAll(owner: address, operator: address): bool</text>
<text text-anchor="start" x="557.62" y="-509.1" font-family="Times,serif" font-size="14.00">Public:</text>
<text text-anchor="start" x="557.62" y="-492.3" font-family="Times,serif" font-size="14.00"> &#160;&#160;&#160;&lt;&lt;event&gt;&gt; Transfer(from: address, to: address, tokenId: uint256)</text>
<text text-anchor="start" x="557.62" y="-475.5" font-family="Times,serif" font-size="14.00"> &#160;&#160;&#160;&lt;&lt;event&gt;&gt; Approval(owner: address, approved: address, tokenId: uint256)</text>
<text text-anchor="start" x="557.62" y="-458.7" font-family="Times,serif" font-size="14.00"> &#160;&#160;&#160;&lt;&lt;event&gt;&gt; ApprovalForAll(owner: address, operator: address, approved: bool)</text>
</g>
<!-- 3&#45;&gt;2 -->
<g id="edge2" class="edge">
<title>3&#45;&gt;2</title>
<path fill="none" stroke="black" stroke-dasharray="5,2" d="M786.47,-735.38C786.47,-737.55 786.47,-739.69 786.47,-741.82"/>
<polygon fill="none" stroke="black" points="775.97,-742.08 786.47,-772.08 796.97,-742.08 775.97,-742.08"/>
</g>
<!-- 4 -->
<g id="node5" class="node">
<title>4</title>
<polygon fill="#f2f2f2" stroke="black" points="502.82,-242.3 502.82,-325.5 1070.11,-325.5 1070.11,-242.3 502.82,-242.3"/>
<text text-anchor="middle" x="786.47" y="-308.9" font-family="Times,serif" font-size="14.00">&lt;&lt;Abstract&gt;&gt;</text>
<text text-anchor="middle" x="786.47" y="-292.1" font-family="Times,serif" font-size="14.00">RecoverERC721</text>
<polyline fill="none" stroke="black" points="502.82,-283.9 1070.11,-283.9 "/>
<text text-anchor="start" x="510.82" y="-267.3" font-family="Times,serif" font-size="14.00">Internal:</text>
<text text-anchor="start" x="510.82" y="-250.5" font-family="Times,serif" font-size="14.00"> &#160;&#160;&#160;_recoverERC721(tokenAddress: address, tokenReceiver: address, tokenId: uint256, data: bytes)</text>
</g>
<!-- 4&#45;&gt;3 -->
<g id="edge3" class="edge">
<title>4&#45;&gt;3</title>
<path fill="none" stroke="black" stroke-dasharray="5,2" d="M786.47,-325.67C786.47,-355.49 786.47,-397.96 786.47,-440.25"/>
<polygon fill="black" stroke="black" points="782.97,-440.41 786.47,-450.41 789.97,-440.41 782.97,-440.41"/>
</g>
<!-- 5 -->
<g id="node6" class="node">
<title>5</title>
<polygon fill="#f2f2f2" stroke="black" points="185.28,-0.5 185.28,-117.3 843.65,-117.3 843.65,-0.5 185.28,-0.5"/>
<text text-anchor="middle" x="514.47" y="-100.7" font-family="Times,serif" font-size="14.00">&lt;&lt;Abstract&gt;&gt;</text>
<text text-anchor="middle" x="514.47" y="-83.9" font-family="Times,serif" font-size="14.00">ERC721Recover</text>
<polyline fill="none" stroke="black" points="185.28,-75.7 843.65,-75.7 "/>
<text text-anchor="start" x="193.28" y="-59.1" font-family="Times,serif" font-size="14.00">External:</text>
<text text-anchor="start" x="193.28" y="-42.3" font-family="Times,serif" font-size="14.00"> &#160;&#160;&#160;recoverERC721(tokenAddress: address, tokenReceiver: address, tokenId: uint256, data: bytes) &lt;&lt;onlyOwner&gt;&gt;</text>
<text text-anchor="start" x="193.28" y="-25.5" font-family="Times,serif" font-size="14.00">Public:</text>
<text text-anchor="start" x="193.28" y="-8.7" font-family="Times,serif" font-size="14.00"> &#160;&#160;&#160;constructor(originalOwner: address)</text>
</g>
<!-- 5&#45;&gt;1 -->
<g id="edge4" class="edge">
<title>5&#45;&gt;1</title>
<path fill="none" stroke="black" d="M444.42,-117.33C437.52,-122.98 430.33,-128.88 422.94,-134.94"/>
<polygon fill="none" stroke="black" points="416.09,-126.98 399.55,-154.12 429.4,-143.22 416.09,-126.98"/>
</g>
<!-- 5&#45;&gt;4 -->
<g id="edge5" class="edge">
<title>5&#45;&gt;4</title>
<path fill="none" stroke="black" d="M584.51,-117.33C624.1,-149.79 673.53,-190.31 713.58,-223.14"/>
<polygon fill="none" stroke="black" points="706.97,-231.3 736.83,-242.2 720.28,-215.06 706.97,-231.3"/>
</g>
</g>
</svg>
