<?xml version="1.0" encoding="UTF-8" standalone="no"?>
<!DOCTYPE svg PUBLIC "-//W3C//DTD SVG 1.1//EN"
 "http://www.w3.org/Graphics/SVG/1.1/DTD/svg11.dtd">
<!-- Generated by graphviz version 5.0.0 (20220707.1540)
 -->
<!-- Title: UmlClassDiagram Pages: 1 -->
<svg width="1623pt" height="864pt"
 viewBox="0.00 0.00 1623.11 864.00" xmlns="http://www.w3.org/2000/svg" xmlns:xlink="http://www.w3.org/1999/xlink">
<g id="graph0" class="graph" transform="scale(1 1) rotate(0) translate(4 860)">
<title>UmlClassDiagram</title>
<polygon fill="white" stroke="transparent" points="-4,4 -4,-860 1619.11,-860 1619.11,4 -4,4"/>
<!-- 0 -->
<g id="node1" class="node">
<title>0</title>
<polygon fill="#f2f2f2" stroke="black" points="136.29,-534.5 136.29,-651.3 348.64,-651.3 348.64,-534.5 136.29,-534.5"/>
<text text-anchor="middle" x="242.47" y="-634.7" font-family="Times,serif" font-size="14.00">&lt;&lt;Abstract&gt;&gt;</text>
<text text-anchor="middle" x="242.47" y="-617.9" font-family="Times,serif" font-size="14.00">Context</text>
<polyline fill="none" stroke="black" points="136.29,-609.7 348.64,-609.7 "/>
<text text-anchor="start" x="144.29" y="-593.1" font-family="Times,serif" font-size="14.00">Internal:</text>
<text text-anchor="start" x="144.29" y="-576.3" font-family="Times,serif" font-size="14.00"> &#160;&#160;&#160;_msgSender(): address</text>
<text text-anchor="start" x="144.29" y="-559.5" font-family="Times,serif" font-size="14.00"> &#160;&#160;&#160;_msgData(): bytes</text>
<text text-anchor="start" x="144.29" y="-542.7" font-family="Times,serif" font-size="14.00"> &#160;&#160;&#160;_contextSuffixLength(): uint256</text>
</g>
<!-- 1 -->
<g id="node2" class="node">
<title>1</title>
<polygon fill="#f2f2f2" stroke="black" points="0,-154.3 0,-413.5 484.93,-413.5 484.93,-154.3 0,-154.3"/>
<text text-anchor="middle" x="242.47" y="-396.9" font-family="Times,serif" font-size="14.00">&lt;&lt;Abstract&gt;&gt;</text>
<text text-anchor="middle" x="242.47" y="-380.1" font-family="Times,serif" font-size="14.00">Ownable</text>
<polyline fill="none" stroke="black" points="0,-371.9 484.93,-371.9 "/>
<text text-anchor="start" x="8" y="-355.3" font-family="Times,serif" font-size="14.00">Private:</text>
<text text-anchor="start" x="8" y="-338.5" font-family="Times,serif" font-size="14.00"> &#160;&#160;_owner: address</text>
<polyline fill="none" stroke="black" points="0,-330.3 484.93,-330.3 "/>
<text text-anchor="start" x="8" y="-313.7" font-family="Times,serif" font-size="14.00">Internal:</text>
<text text-anchor="start" x="8" y="-296.9" font-family="Times,serif" font-size="14.00"> &#160;&#160;&#160;_checkOwner()</text>
<text text-anchor="start" x="8" y="-280.1" font-family="Times,serif" font-size="14.00"> &#160;&#160;&#160;_transferOwnership(newOwner: address)</text>
<text text-anchor="start" x="8" y="-263.3" font-family="Times,serif" font-size="14.00">Public:</text>
<text text-anchor="start" x="8" y="-246.5" font-family="Times,serif" font-size="14.00"> &#160;&#160;&#160;&lt;&lt;event&gt;&gt; OwnershipTransferred(previousOwner: address, newOwner: address)</text>
<text text-anchor="start" x="8" y="-229.7" font-family="Times,serif" font-size="14.00"> &#160;&#160;&#160;&lt;&lt;modifier&gt;&gt; onlyOwner()</text>
<text text-anchor="start" x="8" y="-212.9" font-family="Times,serif" font-size="14.00"> &#160;&#160;&#160;constructor(initialOwner: address)</text>
<text text-anchor="start" x="8" y="-196.1" font-family="Times,serif" font-size="14.00"> &#160;&#160;&#160;owner(): address</text>
<text text-anchor="start" x="8" y="-179.3" font-family="Times,serif" font-size="14.00"> &#160;&#160;&#160;renounceOwnership() &lt;&lt;onlyOwner&gt;&gt;</text>
<text text-anchor="start" x="8" y="-162.5" font-family="Times,serif" font-size="14.00"> &#160;&#160;&#160;transferOwnership(newOwner: address) &lt;&lt;onlyOwner&gt;&gt;</text>
</g>
<!-- 1&#45;&gt;0 -->
<g id="edge1" class="edge">
<title>1&#45;&gt;0</title>
<path fill="none" stroke="black" d="M242.47,-413.76C242.47,-444.28 242.47,-476.14 242.47,-504.33"/>
<polygon fill="none" stroke="black" points="231.97,-504.34 242.47,-534.34 252.97,-504.34 231.97,-504.34"/>
</g>
<!-- 2 -->
<g id="node3" class="node">
<title>2</title>
<polygon fill="#f2f2f2" stroke="black" points="1193.04,-772.3 1193.04,-855.5 1469.89,-855.5 1469.89,-772.3 1193.04,-772.3"/>
<text text-anchor="middle" x="1331.47" y="-838.9" font-family="Times,serif" font-size="14.00">&lt;&lt;Interface&gt;&gt;</text>
<text text-anchor="middle" x="1331.47" y="-822.1" font-family="Times,serif" font-size="14.00">IERC165</text>
<polyline fill="none" stroke="black" points="1193.04,-813.9 1469.89,-813.9 "/>
<text text-anchor="start" x="1201.04" y="-797.3" font-family="Times,serif" font-size="14.00">External:</text>
<text text-anchor="start" x="1201.04" y="-780.5" font-family="Times,serif" font-size="14.00"> &#160;&#160;&#160;&#160;supportsInterface(interfaceId: bytes4): bool</text>
</g>
<!-- 3 -->
<g id="node4" class="node">
<title>3</title>
<polygon fill="#f2f2f2" stroke="black" points="1094.62,-450.5 1094.62,-735.3 1568.31,-735.3 1568.31,-450.5 1094.62,-450.5"/>
<text text-anchor="middle" x="1331.47" y="-718.7" font-family="Times,serif" font-size="14.00">&lt;&lt;Interface&gt;&gt;</text>
<text text-anchor="middle" x="1331.47" y="-701.9" font-family="Times,serif" font-size="14.00">IERC721</text>
<polyline fill="none" stroke="black" points="1094.62,-693.7 1568.31,-693.7 "/>
<text text-anchor="start" x="1102.62" y="-677.1" font-family="Times,serif" font-size="14.00">External:</text>
<text text-anchor="start" x="1102.62" y="-660.3" font-family="Times,serif" font-size="14.00"> &#160;&#160;&#160;&#160;balanceOf(owner: address): (balance: uint256)</text>
<text text-anchor="start" x="1102.62" y="-643.5" font-family="Times,serif" font-size="14.00"> &#160;&#160;&#160;&#160;ownerOf(tokenId: uint256): (owner: address)</text>
<text text-anchor="start" x="1102.62" y="-626.7" font-family="Times,serif" font-size="14.00"> &#160;&#160;&#160;&#160;safeTransferFrom(from: address, to: address, tokenId: uint256, data: bytes)</text>
<text text-anchor="start" x="1102.62" y="-609.9" font-family="Times,serif" font-size="14.00"> &#160;&#160;&#160;&#160;safeTransferFrom(from: address, to: address, tokenId: uint256)</text>
<text text-anchor="start" x="1102.62" y="-593.1" font-family="Times,serif" font-size="14.00"> &#160;&#160;&#160;&#160;transferFrom(from: address, to: address, tokenId: uint256)</text>
<text text-anchor="start" x="1102.62" y="-576.3" font-family="Times,serif" font-size="14.00"> &#160;&#160;&#160;&#160;approve(to: address, tokenId: uint256)</text>
<text text-anchor="start" x="1102.62" y="-559.5" font-family="Times,serif" font-size="14.00"> &#160;&#160;&#160;&#160;setApprovalForAll(operator: address, approved: bool)</text>
<text text-anchor="start" x="1102.62" y="-542.7" font-family="Times,serif" font-size="14.00"> &#160;&#160;&#160;&#160;getApproved(tokenId: uint256): (operator: address)</text>
<text text-anchor="start" x="1102.62" y="-525.9" font-family="Times,serif" font-size="14.00"> &#160;&#160;&#160;&#160;isApprovedForAll(owner: address, operator: address): bool</text>
<text text-anchor="start" x="1102.62" y="-509.1" font-family="Times,serif" font-size="14.00">Public:</text>
<text text-anchor="start" x="1102.62" y="-492.3" font-family="Times,serif" font-size="14.00"> &#160;&#160;&#160;&lt;&lt;event&gt;&gt; Transfer(from: address, to: address, tokenId: uint256)</text>
<text text-anchor="start" x="1102.62" y="-475.5" font-family="Times,serif" font-size="14.00"> &#160;&#160;&#160;&lt;&lt;event&gt;&gt; Approval(owner: address, approved: address, tokenId: uint256)</text>
<text text-anchor="start" x="1102.62" y="-458.7" font-family="Times,serif" font-size="14.00"> &#160;&#160;&#160;&lt;&lt;event&gt;&gt; ApprovalForAll(owner: address, operator: address, approved: bool)</text>
</g>
<!-- 3&#45;&gt;2 -->
<g id="edge2" class="edge">
<title>3&#45;&gt;2</title>
<path fill="none" stroke="black" stroke-dasharray="5,2" d="M1331.47,-735.38C1331.47,-737.55 1331.47,-739.69 1331.47,-741.82"/>
<polygon fill="none" stroke="black" points="1320.97,-742.08 1331.47,-772.08 1341.97,-742.08 1320.97,-742.08"/>
</g>
<!-- 4 -->
<g id="node5" class="node">
<title>4</title>
<polygon fill="#f2f2f2" stroke="black" points="551.78,-484.1 551.78,-701.7 981.15,-701.7 981.15,-484.1 551.78,-484.1"/>
<text text-anchor="middle" x="766.47" y="-685.1" font-family="Times,serif" font-size="14.00">&lt;&lt;Interface&gt;&gt;</text>
<text text-anchor="middle" x="766.47" y="-668.3" font-family="Times,serif" font-size="14.00">IERC20</text>
<polyline fill="none" stroke="black" points="551.78,-660.1 981.15,-660.1 "/>
<text text-anchor="start" x="559.78" y="-643.5" font-family="Times,serif" font-size="14.00">External:</text>
<text text-anchor="start" x="559.78" y="-626.7" font-family="Times,serif" font-size="14.00"> &#160;&#160;&#160;&#160;totalSupply(): uint256</text>
<text text-anchor="start" x="559.78" y="-609.9" font-family="Times,serif" font-size="14.00"> &#160;&#160;&#160;&#160;balanceOf(account: address): uint256</text>
<text text-anchor="start" x="559.78" y="-593.1" font-family="Times,serif" font-size="14.00"> &#160;&#160;&#160;&#160;transfer(to: address, value: uint256): bool</text>
<text text-anchor="start" x="559.78" y="-576.3" font-family="Times,serif" font-size="14.00"> &#160;&#160;&#160;&#160;allowance(owner: address, spender: address): uint256</text>
<text text-anchor="start" x="559.78" y="-559.5" font-family="Times,serif" font-size="14.00"> &#160;&#160;&#160;&#160;approve(spender: address, value: uint256): bool</text>
<text text-anchor="start" x="559.78" y="-542.7" font-family="Times,serif" font-size="14.00"> &#160;&#160;&#160;&#160;transferFrom(from: address, to: address, value: uint256): bool</text>
<text text-anchor="start" x="559.78" y="-525.9" font-family="Times,serif" font-size="14.00">Public:</text>
<text text-anchor="start" x="559.78" y="-509.1" font-family="Times,serif" font-size="14.00"> &#160;&#160;&#160;&lt;&lt;event&gt;&gt; Transfer(from: address, to: address, value: uint256)</text>
<text text-anchor="start" x="559.78" y="-492.3" font-family="Times,serif" font-size="14.00"> &#160;&#160;&#160;&lt;&lt;event&gt;&gt; Approval(owner: address, spender: address, value: uint256)</text>
</g>
<!-- 5 -->
<g id="node6" class="node">
<title>5</title>
<polygon fill="#f2f2f2" stroke="black" points="502.83,-242.3 502.83,-325.5 1030.1,-325.5 1030.1,-242.3 502.83,-242.3"/>
<text text-anchor="middle" x="766.47" y="-308.9" font-family="Times,serif" font-size="14.00">&lt;&lt;Abstract&gt;&gt;</text>
<text text-anchor="middle" x="766.47" y="-292.1" font-family="Times,serif" font-size="14.00">RecoverERC20</text>
<polyline fill="none" stroke="black" points="502.83,-283.9 1030.1,-283.9 "/>
<text text-anchor="start" x="510.83" y="-267.3" font-family="Times,serif" font-size="14.00">Internal:</text>
<text text-anchor="start" x="510.83" y="-250.5" font-family="Times,serif" font-size="14.00"> &#160;&#160;&#160;_recoverERC20(tokenAddress: address, tokenReceiver: address, tokenAmount: uint256)</text>
</g>
<!-- 5&#45;&gt;4 -->
<g id="edge3" class="edge">
<title>5&#45;&gt;4</title>
<path fill="none" stroke="black" stroke-dasharray="5,2" d="M766.47,-325.67C766.47,-363.44 766.47,-421.51 766.47,-473.78"/>
<polygon fill="black" stroke="black" points="762.97,-473.81 766.47,-483.81 769.97,-473.81 762.97,-473.81"/>
</g>
<!-- 6 -->
<g id="node7" class="node">
<title>6</title>
<polygon fill="#f2f2f2" stroke="black" points="1047.82,-242.3 1047.82,-325.5 1615.11,-325.5 1615.11,-242.3 1047.82,-242.3"/>
<text text-anchor="middle" x="1331.47" y="-308.9" font-family="Times,serif" font-size="14.00">&lt;&lt;Abstract&gt;&gt;</text>
<text text-anchor="middle" x="1331.47" y="-292.1" font-family="Times,serif" font-size="14.00">RecoverERC721</text>
<polyline fill="none" stroke="black" points="1047.82,-283.9 1615.11,-283.9 "/>
<text text-anchor="start" x="1055.82" y="-267.3" font-family="Times,serif" font-size="14.00">Internal:</text>
<text text-anchor="start" x="1055.82" y="-250.5" font-family="Times,serif" font-size="14.00"> &#160;&#160;&#160;_recoverERC721(tokenAddress: address, tokenReceiver: address, tokenId: uint256, data: bytes)</text>
</g>
<!-- 6&#45;&gt;3 -->
<g id="edge4" class="edge">
<title>6&#45;&gt;3</title>
<path fill="none" stroke="black" stroke-dasharray="5,2" d="M1331.47,-325.67C1331.47,-355.49 1331.47,-397.96 1331.47,-440.25"/>
<polygon fill="black" stroke="black" points="1327.97,-440.41 1331.47,-450.41 1334.97,-440.41 1327.97,-440.41"/>
</g>
<!-- 7 -->
<g id="node8" class="node">
<title>7</title>
<polygon fill="#f2f2f2" stroke="black" points="437.28,-0.5 437.28,-117.3 1095.65,-117.3 1095.65,-0.5 437.28,-0.5"/>
<text text-anchor="middle" x="766.47" y="-100.7" font-family="Times,serif" font-size="14.00">&lt;&lt;Abstract&gt;&gt;</text>
<text text-anchor="middle" x="766.47" y="-83.9" font-family="Times,serif" font-size="14.00">TokenRecover</text>
<polyline fill="none" stroke="black" points="437.28,-75.7 1095.65,-75.7 "/>
<text text-anchor="start" x="445.28" y="-59.1" font-family="Times,serif" font-size="14.00">Public:</text>
<text text-anchor="start" x="445.28" y="-42.3" font-family="Times,serif" font-size="14.00"> &#160;&#160;&#160;constructor(initialOwner: address)</text>
<text text-anchor="start" x="445.28" y="-25.5" font-family="Times,serif" font-size="14.00"> &#160;&#160;&#160;recoverERC20(tokenAddress: address, tokenReceiver: address, tokenAmount: uint256) &lt;&lt;onlyOwner&gt;&gt;</text>
<text text-anchor="start" x="445.28" y="-8.7" font-family="Times,serif" font-size="14.00"> &#160;&#160;&#160;recoverERC721(tokenAddress: address, tokenReceiver: address, tokenId: uint256, data: bytes) &lt;&lt;onlyOwner&gt;&gt;</text>
</g>
<!-- 7&#45;&gt;1 -->
<g id="edge5" class="edge">
<title>7&#45;&gt;1</title>
<path fill="none" stroke="black" d="M587.37,-117.37C563.68,-125.85 539.56,-134.91 512.76,-145.85"/>
<polygon fill="none" stroke="black" points="508.61,-136.2 484.98,-157.46 516.71,-155.58 508.61,-136.2"/>
</g>
<!-- 7&#45;&gt;5 -->
<g id="edge6" class="edge">
<title>7&#45;&gt;5</title>
<path fill="none" stroke="black" d="M766.47,-117.33C766.47,-146.2 766.47,-181.45 766.47,-211.99"/>
<polygon fill="none" stroke="black" points="755.97,-212.2 766.47,-242.2 776.97,-212.2 755.97,-212.2"/>
</g>
<!-- 7&#45;&gt;6 -->
<g id="edge7" class="edge">
<title>7&#45;&gt;6</title>
<path fill="none" stroke="black" d="M940.58,-117.31C973.6,-128.9 1007.74,-141.36 1039.47,-153.8 1098.73,-177.05 1163.6,-205.42 1217.11,-229.64"/>
<polygon fill="none" stroke="black" points="1213.1,-239.36 1244.76,-242.25 1221.81,-220.25 1213.1,-239.36"/>
</g>
</g>
</svg>
