<?xml version="1.0" encoding="UTF-8" standalone="no"?>
<!DOCTYPE svg PUBLIC "-//W3C//DTD SVG 1.1//EN"
 "http://www.w3.org/Graphics/SVG/1.1/DTD/svg11.dtd">
<!-- Generated by graphviz version 5.0.0 (20220707.1540)
 -->
<!-- Title: UmlClassDiagram Pages: 1 -->
<svg width="1623pt" height="878pt"
 viewBox="0.00 0.00 1623.11 878.00" xmlns="http://www.w3.org/2000/svg" xmlns:xlink="http://www.w3.org/1999/xlink">
<g id="graph0" class="graph" transform="scale(1 1) rotate(0) translate(4 874)">
<title>UmlClassDiagram</title>
<polygon fill="white" stroke="transparent" points="-4,4 -4,-874 1619.11,-874 1619.11,4 -4,4"/>
<!-- 0 -->
<g id="node1" class="node">
<title>0</title>
<polygon fill="#f2f2f2" stroke="black" points="136.29,-547.5 136.29,-664.3 348.64,-664.3 348.64,-547.5 136.29,-547.5"/>
<text text-anchor="middle" x="242.47" y="-647.7" font-family="Times,serif" font-size="14.00">&lt;&lt;Abstract&gt;&gt;</text>
<text text-anchor="middle" x="242.47" y="-630.9" font-family="Times,serif" font-size="14.00">Context</text>
<polyline fill="none" stroke="black" points="136.29,-622.7 348.64,-622.7 "/>
<text text-anchor="start" x="144.29" y="-606.1" font-family="Times,serif" font-size="14.00">Internal:</text>
<text text-anchor="start" x="144.29" y="-589.3" font-family="Times,serif" font-size="14.00"> &#160;&#160;&#160;_msgSender(): address</text>
<text text-anchor="start" x="144.29" y="-572.5" font-family="Times,serif" font-size="14.00"> &#160;&#160;&#160;_msgData(): bytes</text>
<text text-anchor="start" x="144.29" y="-555.7" font-family="Times,serif" font-size="14.00"> &#160;&#160;&#160;_contextSuffixLength(): uint256</text>
</g>
<!-- 1 -->
<g id="node2" class="node">
<title>1</title>
<polygon fill="#f2f2f2" stroke="black" points="0,-155.3 0,-414.5 484.93,-414.5 484.93,-155.3 0,-155.3"/>
<text text-anchor="middle" x="242.47" y="-397.9" font-family="Times,serif" font-size="14.00">&lt;&lt;Abstract&gt;&gt;</text>
<text text-anchor="middle" x="242.47" y="-381.1" font-family="Times,serif" font-size="14.00">Ownable</text>
<polyline fill="none" stroke="black" points="0,-372.9 484.93,-372.9 "/>
<text text-anchor="start" x="8" y="-356.3" font-family="Times,serif" font-size="14.00">Private:</text>
<text text-anchor="start" x="8" y="-339.5" font-family="Times,serif" font-size="14.00"> &#160;&#160;_owner: address</text>
<polyline fill="none" stroke="black" points="0,-331.3 484.93,-331.3 "/>
<text text-anchor="start" x="8" y="-314.7" font-family="Times,serif" font-size="14.00">Internal:</text>
<text text-anchor="start" x="8" y="-297.9" font-family="Times,serif" font-size="14.00"> &#160;&#160;&#160;_checkOwner()</text>
<text text-anchor="start" x="8" y="-281.1" font-family="Times,serif" font-size="14.00"> &#160;&#160;&#160;_transferOwnership(newOwner: address)</text>
<text text-anchor="start" x="8" y="-264.3" font-family="Times,serif" font-size="14.00">Public:</text>
<text text-anchor="start" x="8" y="-247.5" font-family="Times,serif" font-size="14.00"> &#160;&#160;&#160;&lt;&lt;event&gt;&gt; OwnershipTransferred(previousOwner: address, newOwner: address)</text>
<text text-anchor="start" x="8" y="-230.7" font-family="Times,serif" font-size="14.00"> &#160;&#160;&#160;&lt;&lt;modifier&gt;&gt; onlyOwner()</text>
<text text-anchor="start" x="8" y="-213.9" font-family="Times,serif" font-size="14.00"> &#160;&#160;&#160;constructor(initialOwner: address)</text>
<text text-anchor="start" x="8" y="-197.1" font-family="Times,serif" font-size="14.00"> &#160;&#160;&#160;owner(): address</text>
<text text-anchor="start" x="8" y="-180.3" font-family="Times,serif" font-size="14.00"> &#160;&#160;&#160;renounceOwnership() &lt;&lt;onlyOwner&gt;&gt;</text>
<text text-anchor="start" x="8" y="-163.5" font-family="Times,serif" font-size="14.00"> &#160;&#160;&#160;transferOwnership(newOwner: address) &lt;&lt;onlyOwner&gt;&gt;</text>
</g>
<!-- 1&#45;&gt;0 -->
<g id="edge1" class="edge">
<title>1&#45;&gt;0</title>
<path fill="none" stroke="black" d="M242.47,-414.73C242.47,-449.05 242.47,-485.33 242.47,-516.91"/>
<polygon fill="none" stroke="black" points="231.97,-517.24 242.47,-547.24 252.97,-517.24 231.97,-517.24"/>
</g>
<!-- 2 -->
<g id="node3" class="node">
<title>2</title>
<polygon fill="#f2f2f2" stroke="black" points="1193.04,-786.3 1193.04,-869.5 1469.89,-869.5 1469.89,-786.3 1193.04,-786.3"/>
<text text-anchor="middle" x="1331.47" y="-852.9" font-family="Times,serif" font-size="14.00">&lt;&lt;Interface&gt;&gt;</text>
<text text-anchor="middle" x="1331.47" y="-836.1" font-family="Times,serif" font-size="14.00">IERC165</text>
<polyline fill="none" stroke="black" points="1193.04,-827.9 1469.89,-827.9 "/>
<text text-anchor="start" x="1201.04" y="-811.3" font-family="Times,serif" font-size="14.00">External:</text>
<text text-anchor="start" x="1201.04" y="-794.5" font-family="Times,serif" font-size="14.00"> &#160;&#160;&#160;&#160;supportsInterface(interfaceId: bytes4): bool</text>
</g>
<!-- 3 -->
<g id="node4" class="node">
<title>3</title>
<polygon fill="#f2f2f2" stroke="black" points="1094.62,-463.5 1094.62,-748.3 1568.31,-748.3 1568.31,-463.5 1094.62,-463.5"/>
<text text-anchor="middle" x="1331.47" y="-731.7" font-family="Times,serif" font-size="14.00">&lt;&lt;Interface&gt;&gt;</text>
<text text-anchor="middle" x="1331.47" y="-714.9" font-family="Times,serif" font-size="14.00">IERC721</text>
<polyline fill="none" stroke="black" points="1094.62,-706.7 1568.31,-706.7 "/>
<text text-anchor="start" x="1102.62" y="-690.1" font-family="Times,serif" font-size="14.00">External:</text>
<text text-anchor="start" x="1102.62" y="-673.3" font-family="Times,serif" font-size="14.00"> &#160;&#160;&#160;&#160;balanceOf(owner: address): (balance: uint256)</text>
<text text-anchor="start" x="1102.62" y="-656.5" font-family="Times,serif" font-size="14.00"> &#160;&#160;&#160;&#160;ownerOf(tokenId: uint256): (owner: address)</text>
<text text-anchor="start" x="1102.62" y="-639.7" font-family="Times,serif" font-size="14.00"> &#160;&#160;&#160;&#160;safeTransferFrom(from: address, to: address, tokenId: uint256, data: bytes)</text>
<text text-anchor="start" x="1102.62" y="-622.9" font-family="Times,serif" font-size="14.00"> &#160;&#160;&#160;&#160;safeTransferFrom(from: address, to: address, tokenId: uint256)</text>
<text text-anchor="start" x="1102.62" y="-606.1" font-family="Times,serif" font-size="14.00"> &#160;&#160;&#160;&#160;transferFrom(from: address, to: address, tokenId: uint256)</text>
<text text-anchor="start" x="1102.62" y="-589.3" font-family="Times,serif" font-size="14.00"> &#160;&#160;&#160;&#160;approve(to: address, tokenId: uint256)</text>
<text text-anchor="start" x="1102.62" y="-572.5" font-family="Times,serif" font-size="14.00"> &#160;&#160;&#160;&#160;setApprovalForAll(operator: address, approved: bool)</text>
<text text-anchor="start" x="1102.62" y="-555.7" font-family="Times,serif" font-size="14.00"> &#160;&#160;&#160;&#160;getApproved(tokenId: uint256): (operator: address)</text>
<text text-anchor="start" x="1102.62" y="-538.9" font-family="Times,serif" font-size="14.00"> &#160;&#160;&#160;&#160;isApprovedForAll(owner: address, operator: address): bool</text>
<text text-anchor="start" x="1102.62" y="-522.1" font-family="Times,serif" font-size="14.00">Public:</text>
<text text-anchor="start" x="1102.62" y="-505.3" font-family="Times,serif" font-size="14.00"> &#160;&#160;&#160;&lt;&lt;event&gt;&gt; Transfer(from: address, to: address, tokenId: uint256)</text>
<text text-anchor="start" x="1102.62" y="-488.5" font-family="Times,serif" font-size="14.00"> &#160;&#160;&#160;&lt;&lt;event&gt;&gt; Approval(owner: address, approved: address, tokenId: uint256)</text>
<text text-anchor="start" x="1102.62" y="-471.7" font-family="Times,serif" font-size="14.00"> &#160;&#160;&#160;&lt;&lt;event&gt;&gt; ApprovalForAll(owner: address, operator: address, approved: bool)</text>
</g>
<!-- 3&#45;&gt;2 -->
<g id="edge2" class="edge">
<title>3&#45;&gt;2</title>
<path fill="none" stroke="black" stroke-dasharray="5,2" d="M1331.47,-748.41C1331.47,-750.94 1331.47,-753.45 1331.47,-755.93"/>
<polygon fill="none" stroke="black" points="1320.97,-755.95 1331.47,-785.95 1341.97,-755.95 1320.97,-755.95"/>
</g>
<!-- 4 -->
<g id="node5" class="node">
<title>4</title>
<polygon fill="#f2f2f2" stroke="black" points="551.78,-497.1 551.78,-714.7 981.15,-714.7 981.15,-497.1 551.78,-497.1"/>
<text text-anchor="middle" x="766.47" y="-698.1" font-family="Times,serif" font-size="14.00">&lt;&lt;Interface&gt;&gt;</text>
<text text-anchor="middle" x="766.47" y="-681.3" font-family="Times,serif" font-size="14.00">IERC20</text>
<polyline fill="none" stroke="black" points="551.78,-673.1 981.15,-673.1 "/>
<text text-anchor="start" x="559.78" y="-656.5" font-family="Times,serif" font-size="14.00">External:</text>
<text text-anchor="start" x="559.78" y="-639.7" font-family="Times,serif" font-size="14.00"> &#160;&#160;&#160;&#160;totalSupply(): uint256</text>
<text text-anchor="start" x="559.78" y="-622.9" font-family="Times,serif" font-size="14.00"> &#160;&#160;&#160;&#160;balanceOf(account: address): uint256</text>
<text text-anchor="start" x="559.78" y="-606.1" font-family="Times,serif" font-size="14.00"> &#160;&#160;&#160;&#160;transfer(to: address, value: uint256): bool</text>
<text text-anchor="start" x="559.78" y="-589.3" font-family="Times,serif" font-size="14.00"> &#160;&#160;&#160;&#160;allowance(owner: address, spender: address): uint256</text>
<text text-anchor="start" x="559.78" y="-572.5" font-family="Times,serif" font-size="14.00"> &#160;&#160;&#160;&#160;approve(spender: address, value: uint256): bool</text>
<text text-anchor="start" x="559.78" y="-555.7" font-family="Times,serif" font-size="14.00"> &#160;&#160;&#160;&#160;transferFrom(from: address, to: address, value: uint256): bool</text>
<text text-anchor="start" x="559.78" y="-538.9" font-family="Times,serif" font-size="14.00">Public:</text>
<text text-anchor="start" x="559.78" y="-522.1" font-family="Times,serif" font-size="14.00"> &#160;&#160;&#160;&lt;&lt;event&gt;&gt; Transfer(from: address, to: address, value: uint256)</text>
<text text-anchor="start" x="559.78" y="-505.3" font-family="Times,serif" font-size="14.00"> &#160;&#160;&#160;&lt;&lt;event&gt;&gt; Approval(owner: address, spender: address, value: uint256)</text>
</g>
<!-- 5 -->
<g id="node6" class="node">
<title>5</title>
<polygon fill="#f2f2f2" stroke="black" points="502.83,-243.3 502.83,-326.5 1030.1,-326.5 1030.1,-243.3 502.83,-243.3"/>
<text text-anchor="middle" x="766.47" y="-309.9" font-family="Times,serif" font-size="14.00">&lt;&lt;Abstract&gt;&gt;</text>
<text text-anchor="middle" x="766.47" y="-293.1" font-family="Times,serif" font-size="14.00">RecoverERC20</text>
<polyline fill="none" stroke="black" points="502.83,-284.9 1030.1,-284.9 "/>
<text text-anchor="start" x="510.83" y="-268.3" font-family="Times,serif" font-size="14.00">Internal:</text>
<text text-anchor="start" x="510.83" y="-251.5" font-family="Times,serif" font-size="14.00"> &#160;&#160;&#160;_recoverERC20(tokenAddress: address, tokenReceiver: address, tokenAmount: uint256)</text>
</g>
<!-- 5&#45;&gt;4 -->
<g id="edge3" class="edge">
<title>5&#45;&gt;4</title>
<path fill="none" stroke="black" stroke-dasharray="5,2" d="M766.47,-326.63C766.47,-366.95 766.47,-430.65 766.47,-486.93"/>
<polygon fill="black" stroke="black" points="762.97,-486.98 766.47,-496.98 769.97,-486.98 762.97,-486.98"/>
<text text-anchor="start" x="766.47" y="-436" font-family="Times,serif" font-size="10.00">transfer</text>
</g>
<!-- 6 -->
<g id="node7" class="node">
<title>6</title>
<polygon fill="#f2f2f2" stroke="black" points="1047.82,-243.3 1047.82,-326.5 1615.11,-326.5 1615.11,-243.3 1047.82,-243.3"/>
<text text-anchor="middle" x="1331.47" y="-309.9" font-family="Times,serif" font-size="14.00">&lt;&lt;Abstract&gt;&gt;</text>
<text text-anchor="middle" x="1331.47" y="-293.1" font-family="Times,serif" font-size="14.00">RecoverERC721</text>
<polyline fill="none" stroke="black" points="1047.82,-284.9 1615.11,-284.9 "/>
<text text-anchor="start" x="1055.82" y="-268.3" font-family="Times,serif" font-size="14.00">Internal:</text>
<text text-anchor="start" x="1055.82" y="-251.5" font-family="Times,serif" font-size="14.00"> &#160;&#160;&#160;_recoverERC721(tokenAddress: address, tokenReceiver: address, tokenId: uint256, data: bytes)</text>
</g>
<!-- 6&#45;&gt;3 -->
<g id="edge4" class="edge">
<title>6&#45;&gt;3</title>
<path fill="none" stroke="black" stroke-dasharray="5,2" d="M1331.47,-326.63C1331.47,-359.02 1331.47,-406.49 1331.47,-453.08"/>
<polygon fill="black" stroke="black" points="1327.97,-453.32 1331.47,-463.32 1334.97,-453.32 1327.97,-453.32"/>
<text text-anchor="start" x="1331.47" y="-436" font-family="Times,serif" font-size="10.00">safeTransferFrom</text>
</g>
<!-- 7 -->
<g id="node8" class="node">
<title>7</title>
<polygon fill="#f2f2f2" stroke="black" points="437.28,-0.5 437.28,-117.3 1095.65,-117.3 1095.65,-0.5 437.28,-0.5"/>
<text text-anchor="middle" x="766.47" y="-100.7" font-family="Times,serif" font-size="14.00">&lt;&lt;Abstract&gt;&gt;</text>
<text text-anchor="middle" x="766.47" y="-83.9" font-family="Times,serif" font-size="14.00">TokenRecover</text>
<polyline fill="none" stroke="black" points="437.28,-75.7 1095.65,-75.7 "/>
<text text-anchor="start" x="445.28" y="-59.1" font-family="Times,serif" font-size="14.00">Public:</text>
<text text-anchor="start" x="445.28" y="-42.3" font-family="Times,serif" font-size="14.00"> &#160;&#160;&#160;constructor(initialOwner: address)</text>
<text text-anchor="start" x="445.28" y="-25.5" font-family="Times,serif" font-size="14.00"> &#160;&#160;&#160;recoverERC20(tokenAddress: address, tokenReceiver: address, tokenAmount: uint256) &lt;&lt;onlyOwner&gt;&gt;</text>
<text text-anchor="start" x="445.28" y="-8.7" font-family="Times,serif" font-size="14.00"> &#160;&#160;&#160;recoverERC721(tokenAddress: address, tokenReceiver: address, tokenId: uint256, data: bytes) &lt;&lt;onlyOwner&gt;&gt;</text>
</g>
<!-- 7&#45;&gt;1 -->
<g id="edge5" class="edge">
<title>7&#45;&gt;1</title>
<path fill="none" stroke="black" d="M589.58,-117.31C565.24,-126.08 540.4,-135.46 512.88,-146.76"/>
<polygon fill="none" stroke="black" points="508.58,-137.17 484.99,-158.47 516.71,-156.54 508.58,-137.17"/>
</g>
<!-- 7&#45;&gt;5 -->
<g id="edge6" class="edge">
<title>7&#45;&gt;5</title>
<path fill="none" stroke="black" d="M766.47,-117.59C766.47,-146.58 766.47,-181.99 766.47,-212.67"/>
<polygon fill="none" stroke="black" points="755.97,-213.02 766.47,-243.02 776.97,-213.02 755.97,-213.02"/>
</g>
<!-- 7&#45;&gt;6 -->
<g id="edge7" class="edge">
<title>7&#45;&gt;6</title>
<path fill="none" stroke="black" d="M938.73,-117.38C972.32,-129.27 1007.14,-142.06 1039.47,-154.8 1098.59,-178.1 1163.32,-206.42 1216.77,-230.6"/>
<polygon fill="none" stroke="black" points="1212.75,-240.3 1244.41,-243.17 1221.45,-221.19 1212.75,-240.3"/>
</g>
</g>
</svg>
