<?xml version="1.0" encoding="UTF-8" standalone="no"?>
<!DOCTYPE svg PUBLIC "-//W3C//DTD SVG 1.1//EN"
 "http://www.w3.org/Graphics/SVG/1.1/DTD/svg11.dtd">
<!-- Generated by graphviz version 5.0.0 (20220707.1540)
 -->
<!-- Title: UmlClassDiagram Pages: 1 -->
<svg width="1038pt" height="660pt"
 viewBox="0.00 0.00 1038.10 659.80" xmlns="http://www.w3.org/2000/svg" xmlns:xlink="http://www.w3.org/1999/xlink">
<g id="graph0" class="graph" transform="scale(1 1) rotate(0) translate(4 655.8)">
<title>UmlClassDiagram</title>
<polygon fill="white" stroke="transparent" points="-4,4 -4,-655.8 1034.1,-655.8 1034.1,4 -4,4"/>
<!-- 0 -->
<g id="node1" class="node">
<title>0</title>
<polygon fill="#f2f2f2" stroke="black" points="163.51,-492.5 163.51,-592.5 321.42,-592.5 321.42,-492.5 163.51,-492.5"/>
<text text-anchor="middle" x="242.47" y="-575.9" font-family="Times,serif" font-size="14.00">&lt;&lt;Abstract&gt;&gt;</text>
<text text-anchor="middle" x="242.47" y="-559.1" font-family="Times,serif" font-size="14.00">Context</text>
<polyline fill="none" stroke="black" points="163.51,-550.9 321.42,-550.9 "/>
<text text-anchor="start" x="171.51" y="-534.3" font-family="Times,serif" font-size="14.00">Internal:</text>
<text text-anchor="start" x="171.51" y="-517.5" font-family="Times,serif" font-size="14.00"> &#160;&#160;&#160;_msgSender(): address</text>
<text text-anchor="start" x="171.51" y="-500.7" font-family="Times,serif" font-size="14.00"> &#160;&#160;&#160;_msgData(): bytes</text>
</g>
<!-- 1 -->
<g id="node2" class="node">
<title>1</title>
<polygon fill="#f2f2f2" stroke="black" points="0,-137.5 0,-396.7 484.93,-396.7 484.93,-137.5 0,-137.5"/>
<text text-anchor="middle" x="242.47" y="-380.1" font-family="Times,serif" font-size="14.00">&lt;&lt;Abstract&gt;&gt;</text>
<text text-anchor="middle" x="242.47" y="-363.3" font-family="Times,serif" font-size="14.00">Ownable</text>
<polyline fill="none" stroke="black" points="0,-355.1 484.93,-355.1 "/>
<text text-anchor="start" x="8" y="-338.5" font-family="Times,serif" font-size="14.00">Private:</text>
<text text-anchor="start" x="8" y="-321.7" font-family="Times,serif" font-size="14.00"> &#160;&#160;_owner: address</text>
<polyline fill="none" stroke="black" points="0,-313.5 484.93,-313.5 "/>
<text text-anchor="start" x="8" y="-296.9" font-family="Times,serif" font-size="14.00">Internal:</text>
<text text-anchor="start" x="8" y="-280.1" font-family="Times,serif" font-size="14.00"> &#160;&#160;&#160;_checkOwner()</text>
<text text-anchor="start" x="8" y="-263.3" font-family="Times,serif" font-size="14.00"> &#160;&#160;&#160;_transferOwnership(newOwner: address)</text>
<text text-anchor="start" x="8" y="-246.5" font-family="Times,serif" font-size="14.00">Public:</text>
<text text-anchor="start" x="8" y="-229.7" font-family="Times,serif" font-size="14.00"> &#160;&#160;&#160;&lt;&lt;event&gt;&gt; OwnershipTransferred(previousOwner: address, newOwner: address)</text>
<text text-anchor="start" x="8" y="-212.9" font-family="Times,serif" font-size="14.00"> &#160;&#160;&#160;&lt;&lt;modifier&gt;&gt; onlyOwner()</text>
<text text-anchor="start" x="8" y="-196.1" font-family="Times,serif" font-size="14.00"> &#160;&#160;&#160;constructor(initialOwner: address)</text>
<text text-anchor="start" x="8" y="-179.3" font-family="Times,serif" font-size="14.00"> &#160;&#160;&#160;owner(): address</text>
<text text-anchor="start" x="8" y="-162.5" font-family="Times,serif" font-size="14.00"> &#160;&#160;&#160;renounceOwnership() &lt;&lt;onlyOwner&gt;&gt;</text>
<text text-anchor="start" x="8" y="-145.7" font-family="Times,serif" font-size="14.00"> &#160;&#160;&#160;transferOwnership(newOwner: address) &lt;&lt;onlyOwner&gt;&gt;</text>
</g>
<!-- 1&#45;&gt;0 -->
<g id="edge1" class="edge">
<title>1&#45;&gt;0</title>
<path fill="none" stroke="black" d="M242.47,-396.79C242.47,-419.15 242.47,-441.8 242.47,-462.33"/>
<polygon fill="none" stroke="black" points="231.97,-462.5 242.47,-492.5 252.97,-462.5 231.97,-462.5"/>
</g>
<!-- 2 -->
<g id="node3" class="node">
<title>2</title>
<polygon fill="#f2f2f2" stroke="black" points="551.78,-433.7 551.78,-651.3 981.15,-651.3 981.15,-433.7 551.78,-433.7"/>
<text text-anchor="middle" x="766.47" y="-634.7" font-family="Times,serif" font-size="14.00">&lt;&lt;Interface&gt;&gt;</text>
<text text-anchor="middle" x="766.47" y="-617.9" font-family="Times,serif" font-size="14.00">IERC20</text>
<polyline fill="none" stroke="black" points="551.78,-609.7 981.15,-609.7 "/>
<text text-anchor="start" x="559.78" y="-593.1" font-family="Times,serif" font-size="14.00">External:</text>
<text text-anchor="start" x="559.78" y="-576.3" font-family="Times,serif" font-size="14.00"> &#160;&#160;&#160;&#160;totalSupply(): uint256</text>
<text text-anchor="start" x="559.78" y="-559.5" font-family="Times,serif" font-size="14.00"> &#160;&#160;&#160;&#160;balanceOf(account: address): uint256</text>
<text text-anchor="start" x="559.78" y="-542.7" font-family="Times,serif" font-size="14.00"> &#160;&#160;&#160;&#160;transfer(to: address, value: uint256): bool</text>
<text text-anchor="start" x="559.78" y="-525.9" font-family="Times,serif" font-size="14.00"> &#160;&#160;&#160;&#160;allowance(owner: address, spender: address): uint256</text>
<text text-anchor="start" x="559.78" y="-509.1" font-family="Times,serif" font-size="14.00"> &#160;&#160;&#160;&#160;approve(spender: address, value: uint256): bool</text>
<text text-anchor="start" x="559.78" y="-492.3" font-family="Times,serif" font-size="14.00"> &#160;&#160;&#160;&#160;transferFrom(from: address, to: address, value: uint256): bool</text>
<text text-anchor="start" x="559.78" y="-475.5" font-family="Times,serif" font-size="14.00">Public:</text>
<text text-anchor="start" x="559.78" y="-458.7" font-family="Times,serif" font-size="14.00"> &#160;&#160;&#160;&lt;&lt;event&gt;&gt; Transfer(from: address, to: address, value: uint256)</text>
<text text-anchor="start" x="559.78" y="-441.9" font-family="Times,serif" font-size="14.00"> &#160;&#160;&#160;&lt;&lt;event&gt;&gt; Approval(owner: address, spender: address, value: uint256)</text>
</g>
<!-- 3 -->
<g id="node4" class="node">
<title>3</title>
<polygon fill="#f2f2f2" stroke="black" points="502.83,-225.5 502.83,-308.7 1030.1,-308.7 1030.1,-225.5 502.83,-225.5"/>
<text text-anchor="middle" x="766.47" y="-292.1" font-family="Times,serif" font-size="14.00">&lt;&lt;Abstract&gt;&gt;</text>
<text text-anchor="middle" x="766.47" y="-275.3" font-family="Times,serif" font-size="14.00">RecoverERC20</text>
<polyline fill="none" stroke="black" points="502.83,-267.1 1030.1,-267.1 "/>
<text text-anchor="start" x="510.83" y="-250.5" font-family="Times,serif" font-size="14.00">Internal:</text>
<text text-anchor="start" x="510.83" y="-233.7" font-family="Times,serif" font-size="14.00"> &#160;&#160;&#160;_recoverERC20(tokenAddress: address, tokenReceiver: address, tokenAmount: uint256)</text>
</g>
<!-- 3&#45;&gt;2 -->
<g id="edge2" class="edge">
<title>3&#45;&gt;2</title>
<path fill="none" stroke="black" stroke-dasharray="5,2" d="M766.47,-308.74C766.47,-339.17 766.47,-382.46 766.47,-423.47"/>
<polygon fill="black" stroke="black" points="762.97,-423.55 766.47,-433.55 769.97,-423.55 762.97,-423.55"/>
</g>
<!-- 4 -->
<g id="node5" class="node">
<title>4</title>
<polygon fill="#f2f2f2" stroke="black" points="263.91,-0.5 263.91,-100.5 745.02,-100.5 745.02,-0.5 263.91,-0.5"/>
<text text-anchor="middle" x="504.47" y="-83.9" font-family="Times,serif" font-size="14.00">&lt;&lt;Abstract&gt;&gt;</text>
<text text-anchor="middle" x="504.47" y="-67.1" font-family="Times,serif" font-size="14.00">TokenRecoverLegacy</text>
<polyline fill="none" stroke="black" points="263.91,-58.9 745.02,-58.9 "/>
<text text-anchor="start" x="271.91" y="-42.3" font-family="Times,serif" font-size="14.00">Public:</text>
<text text-anchor="start" x="271.91" y="-25.5" font-family="Times,serif" font-size="14.00"> &#160;&#160;&#160;constructor()</text>
<text text-anchor="start" x="271.91" y="-8.7" font-family="Times,serif" font-size="14.00"> &#160;&#160;&#160;recoverERC20(tokenAddress: address, tokenAmount: uint256) &lt;&lt;onlyOwner&gt;&gt;</text>
</g>
<!-- 4&#45;&gt;1 -->
<g id="edge3" class="edge">
<title>4&#45;&gt;1</title>
<path fill="none" stroke="black" d="M444.36,-100.73C437.59,-106.28 430.46,-112.11 423.09,-118.15"/>
<polygon fill="none" stroke="black" points="416.16,-110.26 399.61,-137.39 429.47,-126.5 416.16,-110.26"/>
</g>
<!-- 4&#45;&gt;3 -->
<g id="edge4" class="edge">
<title>4&#45;&gt;3</title>
<path fill="none" stroke="black" d="M564.57,-100.73C602.91,-132.14 652.84,-173.03 693.46,-206.3"/>
<polygon fill="none" stroke="black" points="686.88,-214.49 716.74,-225.37 700.19,-198.24 686.88,-214.49"/>
</g>
</g>
</svg>
