<?xml version="1.0" encoding="UTF-8" standalone="no"?>
<!DOCTYPE svg PUBLIC "-//W3C//DTD SVG 1.1//EN"
 "http://www.w3.org/Graphics/SVG/1.1/DTD/svg11.dtd">
<!-- Generated by graphviz version 5.0.0 (20220707.1540)
 -->
<!-- Title: UmlClassDiagram Pages: 1 -->
<svg width="1623pt" height="881pt"
 viewBox="0.00 0.00 1623.11 880.80" xmlns="http://www.w3.org/2000/svg" xmlns:xlink="http://www.w3.org/1999/xlink">
<g id="graph0" class="graph" transform="scale(1 1) rotate(0) translate(4 876.8)">
<title>UmlClassDiagram</title>
<polygon fill="white" stroke="transparent" points="-4,4 -4,-876.8 1619.11,-876.8 1619.11,4 -4,4"/>
<!-- 0 -->
<g id="node1" class="node">
<title>0</title>
<polygon fill="#f2f2f2" stroke="black" points="163.51,-559.7 163.51,-659.7 321.42,-659.7 321.42,-559.7 163.51,-559.7"/>
<text text-anchor="middle" x="242.47" y="-643.1" font-family="Times,serif" font-size="14.00">&lt;&lt;Abstract&gt;&gt;</text>
<text text-anchor="middle" x="242.47" y="-626.3" font-family="Times,serif" font-size="14.00">Context</text>
<polyline fill="none" stroke="black" points="163.51,-618.1 321.42,-618.1 "/>
<text text-anchor="start" x="171.51" y="-601.5" font-family="Times,serif" font-size="14.00">Internal:</text>
<text text-anchor="start" x="171.51" y="-584.7" font-family="Times,serif" font-size="14.00"> &#160;&#160;&#160;_msgSender(): address</text>
<text text-anchor="start" x="171.51" y="-567.9" font-family="Times,serif" font-size="14.00"> &#160;&#160;&#160;_msgData(): bytes</text>
</g>
<!-- 1 -->
<g id="node2" class="node">
<title>1</title>
<polygon fill="#f2f2f2" stroke="black" points="0,-171.1 0,-430.3 484.93,-430.3 484.93,-171.1 0,-171.1"/>
<text text-anchor="middle" x="242.47" y="-413.7" font-family="Times,serif" font-size="14.00">&lt;&lt;Abstract&gt;&gt;</text>
<text text-anchor="middle" x="242.47" y="-396.9" font-family="Times,serif" font-size="14.00">Ownable</text>
<polyline fill="none" stroke="black" points="0,-388.7 484.93,-388.7 "/>
<text text-anchor="start" x="8" y="-372.1" font-family="Times,serif" font-size="14.00">Private:</text>
<text text-anchor="start" x="8" y="-355.3" font-family="Times,serif" font-size="14.00"> &#160;&#160;_owner: address</text>
<polyline fill="none" stroke="black" points="0,-347.1 484.93,-347.1 "/>
<text text-anchor="start" x="8" y="-330.5" font-family="Times,serif" font-size="14.00">Internal:</text>
<text text-anchor="start" x="8" y="-313.7" font-family="Times,serif" font-size="14.00"> &#160;&#160;&#160;_checkOwner()</text>
<text text-anchor="start" x="8" y="-296.9" font-family="Times,serif" font-size="14.00"> &#160;&#160;&#160;_transferOwnership(newOwner: address)</text>
<text text-anchor="start" x="8" y="-280.1" font-family="Times,serif" font-size="14.00">Public:</text>
<text text-anchor="start" x="8" y="-263.3" font-family="Times,serif" font-size="14.00"> &#160;&#160;&#160;&lt;&lt;event&gt;&gt; OwnershipTransferred(previousOwner: address, newOwner: address)</text>
<text text-anchor="start" x="8" y="-246.5" font-family="Times,serif" font-size="14.00"> &#160;&#160;&#160;&lt;&lt;modifier&gt;&gt; onlyOwner()</text>
<text text-anchor="start" x="8" y="-229.7" font-family="Times,serif" font-size="14.00"> &#160;&#160;&#160;constructor(initialOwner: address)</text>
<text text-anchor="start" x="8" y="-212.9" font-family="Times,serif" font-size="14.00"> &#160;&#160;&#160;owner(): address</text>
<text text-anchor="start" x="8" y="-196.1" font-family="Times,serif" font-size="14.00"> &#160;&#160;&#160;renounceOwnership() &lt;&lt;onlyOwner&gt;&gt;</text>
<text text-anchor="start" x="8" y="-179.3" font-family="Times,serif" font-size="14.00"> &#160;&#160;&#160;transferOwnership(newOwner: address) &lt;&lt;onlyOwner&gt;&gt;</text>
</g>
<!-- 1&#45;&gt;0 -->
<g id="edge1" class="edge">
<title>1&#45;&gt;0</title>
<path fill="none" stroke="black" d="M242.47,-430.56C242.47,-464.06 242.47,-499.17 242.47,-529.28"/>
<polygon fill="none" stroke="black" points="231.97,-529.67 242.47,-559.67 252.97,-529.67 231.97,-529.67"/>
</g>
<!-- 2 -->
<g id="node3" class="node">
<title>2</title>
<polygon fill="#f2f2f2" stroke="black" points="1193.04,-789.1 1193.04,-872.3 1469.89,-872.3 1469.89,-789.1 1193.04,-789.1"/>
<text text-anchor="middle" x="1331.47" y="-855.7" font-family="Times,serif" font-size="14.00">&lt;&lt;Interface&gt;&gt;</text>
<text text-anchor="middle" x="1331.47" y="-838.9" font-family="Times,serif" font-size="14.00">IERC165</text>
<polyline fill="none" stroke="black" points="1193.04,-830.7 1469.89,-830.7 "/>
<text text-anchor="start" x="1201.04" y="-814.1" font-family="Times,serif" font-size="14.00">External:</text>
<text text-anchor="start" x="1201.04" y="-797.3" font-family="Times,serif" font-size="14.00"> &#160;&#160;&#160;&#160;supportsInterface(interfaceId: bytes4): bool</text>
</g>
<!-- 3 -->
<g id="node4" class="node">
<title>3</title>
<polygon fill="#f2f2f2" stroke="black" points="1094.62,-467.3 1094.62,-752.1 1568.31,-752.1 1568.31,-467.3 1094.62,-467.3"/>
<text text-anchor="middle" x="1331.47" y="-735.5" font-family="Times,serif" font-size="14.00">&lt;&lt;Interface&gt;&gt;</text>
<text text-anchor="middle" x="1331.47" y="-718.7" font-family="Times,serif" font-size="14.00">IERC721</text>
<polyline fill="none" stroke="black" points="1094.62,-710.5 1568.31,-710.5 "/>
<text text-anchor="start" x="1102.62" y="-693.9" font-family="Times,serif" font-size="14.00">External:</text>
<text text-anchor="start" x="1102.62" y="-677.1" font-family="Times,serif" font-size="14.00"> &#160;&#160;&#160;&#160;balanceOf(owner: address): (balance: uint256)</text>
<text text-anchor="start" x="1102.62" y="-660.3" font-family="Times,serif" font-size="14.00"> &#160;&#160;&#160;&#160;ownerOf(tokenId: uint256): (owner: address)</text>
<text text-anchor="start" x="1102.62" y="-643.5" font-family="Times,serif" font-size="14.00"> &#160;&#160;&#160;&#160;safeTransferFrom(from: address, to: address, tokenId: uint256, data: bytes)</text>
<text text-anchor="start" x="1102.62" y="-626.7" font-family="Times,serif" font-size="14.00"> &#160;&#160;&#160;&#160;safeTransferFrom(from: address, to: address, tokenId: uint256)</text>
<text text-anchor="start" x="1102.62" y="-609.9" font-family="Times,serif" font-size="14.00"> &#160;&#160;&#160;&#160;transferFrom(from: address, to: address, tokenId: uint256)</text>
<text text-anchor="start" x="1102.62" y="-593.1" font-family="Times,serif" font-size="14.00"> &#160;&#160;&#160;&#160;approve(to: address, tokenId: uint256)</text>
<text text-anchor="start" x="1102.62" y="-576.3" font-family="Times,serif" font-size="14.00"> &#160;&#160;&#160;&#160;setApprovalForAll(operator: address, approved: bool)</text>
<text text-anchor="start" x="1102.62" y="-559.5" font-family="Times,serif" font-size="14.00"> &#160;&#160;&#160;&#160;getApproved(tokenId: uint256): (operator: address)</text>
<text text-anchor="start" x="1102.62" y="-542.7" font-family="Times,serif" font-size="14.00"> &#160;&#160;&#160;&#160;isApprovedForAll(owner: address, operator: address): bool</text>
<text text-anchor="start" x="1102.62" y="-525.9" font-family="Times,serif" font-size="14.00">Public:</text>
<text text-anchor="start" x="1102.62" y="-509.1" font-family="Times,serif" font-size="14.00"> &#160;&#160;&#160;&lt;&lt;event&gt;&gt; Transfer(from: address, to: address, tokenId: uint256)</text>
<text text-anchor="start" x="1102.62" y="-492.3" font-family="Times,serif" font-size="14.00"> &#160;&#160;&#160;&lt;&lt;event&gt;&gt; Approval(owner: address, approved: address, tokenId: uint256)</text>
<text text-anchor="start" x="1102.62" y="-475.5" font-family="Times,serif" font-size="14.00"> &#160;&#160;&#160;&lt;&lt;event&gt;&gt; ApprovalForAll(owner: address, operator: address, approved: bool)</text>
</g>
<!-- 3&#45;&gt;2 -->
<g id="edge2" class="edge">
<title>3&#45;&gt;2</title>
<path fill="none" stroke="black" stroke-dasharray="5,2" d="M1331.47,-752.18C1331.47,-754.35 1331.47,-756.49 1331.47,-758.62"/>
<polygon fill="none" stroke="black" points="1320.97,-758.88 1331.47,-788.88 1341.97,-758.88 1320.97,-758.88"/>
</g>
<!-- 4 -->
<g id="node5" class="node">
<title>4</title>
<polygon fill="#f2f2f2" stroke="black" points="551.78,-500.9 551.78,-718.5 981.15,-718.5 981.15,-500.9 551.78,-500.9"/>
<text text-anchor="middle" x="766.47" y="-701.9" font-family="Times,serif" font-size="14.00">&lt;&lt;Interface&gt;&gt;</text>
<text text-anchor="middle" x="766.47" y="-685.1" font-family="Times,serif" font-size="14.00">IERC20</text>
<polyline fill="none" stroke="black" points="551.78,-676.9 981.15,-676.9 "/>
<text text-anchor="start" x="559.78" y="-660.3" font-family="Times,serif" font-size="14.00">External:</text>
<text text-anchor="start" x="559.78" y="-643.5" font-family="Times,serif" font-size="14.00"> &#160;&#160;&#160;&#160;totalSupply(): uint256</text>
<text text-anchor="start" x="559.78" y="-626.7" font-family="Times,serif" font-size="14.00"> &#160;&#160;&#160;&#160;balanceOf(account: address): uint256</text>
<text text-anchor="start" x="559.78" y="-609.9" font-family="Times,serif" font-size="14.00"> &#160;&#160;&#160;&#160;transfer(to: address, value: uint256): bool</text>
<text text-anchor="start" x="559.78" y="-593.1" font-family="Times,serif" font-size="14.00"> &#160;&#160;&#160;&#160;allowance(owner: address, spender: address): uint256</text>
<text text-anchor="start" x="559.78" y="-576.3" font-family="Times,serif" font-size="14.00"> &#160;&#160;&#160;&#160;approve(spender: address, value: uint256): bool</text>
<text text-anchor="start" x="559.78" y="-559.5" font-family="Times,serif" font-size="14.00"> &#160;&#160;&#160;&#160;transferFrom(from: address, to: address, value: uint256): bool</text>
<text text-anchor="start" x="559.78" y="-542.7" font-family="Times,serif" font-size="14.00">Public:</text>
<text text-anchor="start" x="559.78" y="-525.9" font-family="Times,serif" font-size="14.00"> &#160;&#160;&#160;&lt;&lt;event&gt;&gt; Transfer(from: address, to: address, value: uint256)</text>
<text text-anchor="start" x="559.78" y="-509.1" font-family="Times,serif" font-size="14.00"> &#160;&#160;&#160;&lt;&lt;event&gt;&gt; Approval(owner: address, spender: address, value: uint256)</text>
</g>
<!-- 5 -->
<g id="node6" class="node">
<title>5</title>
<polygon fill="#f2f2f2" stroke="black" points="502.83,-259.1 502.83,-342.3 1030.1,-342.3 1030.1,-259.1 502.83,-259.1"/>
<text text-anchor="middle" x="766.47" y="-325.7" font-family="Times,serif" font-size="14.00">&lt;&lt;Abstract&gt;&gt;</text>
<text text-anchor="middle" x="766.47" y="-308.9" font-family="Times,serif" font-size="14.00">RecoverERC20</text>
<polyline fill="none" stroke="black" points="502.83,-300.7 1030.1,-300.7 "/>
<text text-anchor="start" x="510.83" y="-284.1" font-family="Times,serif" font-size="14.00">Internal:</text>
<text text-anchor="start" x="510.83" y="-267.3" font-family="Times,serif" font-size="14.00"> &#160;&#160;&#160;_recoverERC20(tokenAddress: address, tokenReceiver: address, tokenAmount: uint256)</text>
</g>
<!-- 5&#45;&gt;4 -->
<g id="edge3" class="edge">
<title>5&#45;&gt;4</title>
<path fill="none" stroke="black" stroke-dasharray="5,2" d="M766.47,-342.47C766.47,-380.24 766.47,-438.31 766.47,-490.58"/>
<polygon fill="black" stroke="black" points="762.97,-490.61 766.47,-500.61 769.97,-490.61 762.97,-490.61"/>
</g>
<!-- 6 -->
<g id="node7" class="node">
<title>6</title>
<polygon fill="#f2f2f2" stroke="black" points="1047.82,-259.1 1047.82,-342.3 1615.11,-342.3 1615.11,-259.1 1047.82,-259.1"/>
<text text-anchor="middle" x="1331.47" y="-325.7" font-family="Times,serif" font-size="14.00">&lt;&lt;Abstract&gt;&gt;</text>
<text text-anchor="middle" x="1331.47" y="-308.9" font-family="Times,serif" font-size="14.00">RecoverERC721</text>
<polyline fill="none" stroke="black" points="1047.82,-300.7 1615.11,-300.7 "/>
<text text-anchor="start" x="1055.82" y="-284.1" font-family="Times,serif" font-size="14.00">Internal:</text>
<text text-anchor="start" x="1055.82" y="-267.3" font-family="Times,serif" font-size="14.00"> &#160;&#160;&#160;_recoverERC721(tokenAddress: address, tokenReceiver: address, tokenId: uint256, data: bytes)</text>
</g>
<!-- 6&#45;&gt;3 -->
<g id="edge4" class="edge">
<title>6&#45;&gt;3</title>
<path fill="none" stroke="black" stroke-dasharray="5,2" d="M1331.47,-342.47C1331.47,-372.29 1331.47,-414.76 1331.47,-457.05"/>
<polygon fill="black" stroke="black" points="1327.97,-457.21 1331.47,-467.21 1334.97,-457.21 1327.97,-457.21"/>
</g>
<!-- 7 -->
<g id="node8" class="node">
<title>7</title>
<polygon fill="#f2f2f2" stroke="black" points="437.28,-0.5 437.28,-134.1 1095.65,-134.1 1095.65,-0.5 437.28,-0.5"/>
<text text-anchor="middle" x="766.47" y="-117.5" font-family="Times,serif" font-size="14.00">&lt;&lt;Abstract&gt;&gt;</text>
<text text-anchor="middle" x="766.47" y="-100.7" font-family="Times,serif" font-size="14.00">TokenRecover</text>
<polyline fill="none" stroke="black" points="437.28,-92.5 1095.65,-92.5 "/>
<text text-anchor="start" x="445.28" y="-75.9" font-family="Times,serif" font-size="14.00">External:</text>
<text text-anchor="start" x="445.28" y="-59.1" font-family="Times,serif" font-size="14.00"> &#160;&#160;&#160;recoverERC20(tokenAddress: address, tokenReceiver: address, tokenAmount: uint256) &lt;&lt;onlyOwner&gt;&gt;</text>
<text text-anchor="start" x="445.28" y="-42.3" font-family="Times,serif" font-size="14.00"> &#160;&#160;&#160;recoverERC721(tokenAddress: address, tokenReceiver: address, tokenId: uint256, data: bytes) &lt;&lt;onlyOwner&gt;&gt;</text>
<text text-anchor="start" x="445.28" y="-25.5" font-family="Times,serif" font-size="14.00">Public:</text>
<text text-anchor="start" x="445.28" y="-8.7" font-family="Times,serif" font-size="14.00"> &#160;&#160;&#160;constructor(originalOwner: address)</text>
</g>
<!-- 7&#45;&gt;1 -->
<g id="edge5" class="edge">
<title>7&#45;&gt;1</title>
<path fill="none" stroke="black" d="M581.72,-134.19C559.76,-142.72 537.51,-151.69 512.61,-162.34"/>
<polygon fill="none" stroke="black" points="508.33,-152.75 485.03,-174.37 516.72,-172.01 508.33,-152.75"/>
</g>
<!-- 7&#45;&gt;5 -->
<g id="edge6" class="edge">
<title>7&#45;&gt;5</title>
<path fill="none" stroke="black" d="M766.47,-134.3C766.47,-163.83 766.47,-198.69 766.47,-228.77"/>
<polygon fill="none" stroke="black" points="755.97,-229.07 766.47,-259.07 776.97,-229.07 755.97,-229.07"/>
</g>
<!-- 7&#45;&gt;6 -->
<g id="edge7" class="edge">
<title>7&#45;&gt;6</title>
<path fill="none" stroke="black" d="M946.56,-134.1C977.67,-145.95 1009.59,-158.41 1039.47,-170.6 1097.98,-194.47 1162.29,-222.69 1215.62,-246.64"/>
<polygon fill="none" stroke="black" points="1211.56,-256.33 1243.22,-259.1 1220.2,-237.19 1211.56,-256.33"/>
</g>
</g>
</svg>
