<?xml version="1.0" encoding="UTF-8" standalone="no"?>
<!DOCTYPE svg PUBLIC "-//W3C//DTD SVG 1.1//EN"
 "http://www.w3.org/Graphics/SVG/1.1/DTD/svg11.dtd">
<!-- Generated by graphviz version 5.0.0 (20220707.1540)
 -->
<!-- Title: UmlClassDiagram Pages: 1 -->
<svg width="940pt" height="662pt"
 viewBox="0.00 0.00 940.15 662.40" xmlns="http://www.w3.org/2000/svg" xmlns:xlink="http://www.w3.org/1999/xlink">
<g id="graph0" class="graph" transform="scale(1 1) rotate(0) translate(4 658.4)">
<title>UmlClassDiagram</title>
<polygon fill="white" stroke="transparent" points="-4,4 -4,-658.4 936.15,-658.4 936.15,4 -4,4"/>
<!-- 0 -->
<g id="node1" class="node">
<title>0</title>
<polygon fill="#f2f2f2" stroke="black" points="163.51,-553.9 163.51,-653.9 321.42,-653.9 321.42,-553.9 163.51,-553.9"/>
<text text-anchor="middle" x="242.47" y="-637.3" font-family="Times,serif" font-size="14.00">&lt;&lt;Abstract&gt;&gt;</text>
<text text-anchor="middle" x="242.47" y="-620.5" font-family="Times,serif" font-size="14.00">Context</text>
<polyline fill="none" stroke="black" points="163.51,-612.3 321.42,-612.3 "/>
<text text-anchor="start" x="171.51" y="-595.7" font-family="Times,serif" font-size="14.00">Internal:</text>
<text text-anchor="start" x="171.51" y="-578.9" font-family="Times,serif" font-size="14.00"> &#160;&#160;&#160;_msgSender(): address</text>
<text text-anchor="start" x="171.51" y="-562.1" font-family="Times,serif" font-size="14.00"> &#160;&#160;&#160;_msgData(): bytes</text>
</g>
<!-- 1 -->
<g id="node2" class="node">
<title>1</title>
<polygon fill="#f2f2f2" stroke="black" points="0,-257.7 0,-516.9 484.93,-516.9 484.93,-257.7 0,-257.7"/>
<text text-anchor="middle" x="242.47" y="-500.3" font-family="Times,serif" font-size="14.00">&lt;&lt;Abstract&gt;&gt;</text>
<text text-anchor="middle" x="242.47" y="-483.5" font-family="Times,serif" font-size="14.00">Ownable</text>
<polyline fill="none" stroke="black" points="0,-475.3 484.93,-475.3 "/>
<text text-anchor="start" x="8" y="-458.7" font-family="Times,serif" font-size="14.00">Private:</text>
<text text-anchor="start" x="8" y="-441.9" font-family="Times,serif" font-size="14.00"> &#160;&#160;_owner: address</text>
<polyline fill="none" stroke="black" points="0,-433.7 484.93,-433.7 "/>
<text text-anchor="start" x="8" y="-417.1" font-family="Times,serif" font-size="14.00">Internal:</text>
<text text-anchor="start" x="8" y="-400.3" font-family="Times,serif" font-size="14.00"> &#160;&#160;&#160;_checkOwner()</text>
<text text-anchor="start" x="8" y="-383.5" font-family="Times,serif" font-size="14.00"> &#160;&#160;&#160;_transferOwnership(newOwner: address)</text>
<text text-anchor="start" x="8" y="-366.7" font-family="Times,serif" font-size="14.00">Public:</text>
<text text-anchor="start" x="8" y="-349.9" font-family="Times,serif" font-size="14.00"> &#160;&#160;&#160;&lt;&lt;event&gt;&gt; OwnershipTransferred(previousOwner: address, newOwner: address)</text>
<text text-anchor="start" x="8" y="-333.1" font-family="Times,serif" font-size="14.00"> &#160;&#160;&#160;&lt;&lt;modifier&gt;&gt; onlyOwner()</text>
<text text-anchor="start" x="8" y="-316.3" font-family="Times,serif" font-size="14.00"> &#160;&#160;&#160;constructor(initialOwner: address)</text>
<text text-anchor="start" x="8" y="-299.5" font-family="Times,serif" font-size="14.00"> &#160;&#160;&#160;owner(): address</text>
<text text-anchor="start" x="8" y="-282.7" font-family="Times,serif" font-size="14.00"> &#160;&#160;&#160;renounceOwnership() &lt;&lt;onlyOwner&gt;&gt;</text>
<text text-anchor="start" x="8" y="-265.9" font-family="Times,serif" font-size="14.00"> &#160;&#160;&#160;transferOwnership(newOwner: address) &lt;&lt;onlyOwner&gt;&gt;</text>
</g>
<!-- 1&#45;&gt;0 -->
<g id="edge1" class="edge">
<title>1&#45;&gt;0</title>
<path fill="none" stroke="black" d="M242.47,-517.16C242.47,-519.26 242.47,-521.35 242.47,-523.43"/>
<polygon fill="none" stroke="black" points="231.97,-523.56 242.47,-553.56 252.97,-523.56 231.97,-523.56"/>
</g>
<!-- 2 -->
<g id="node3" class="node">
<title>2</title>
<polygon fill="#f2f2f2" stroke="black" points="502.78,-278.5 502.78,-496.1 932.15,-496.1 932.15,-278.5 502.78,-278.5"/>
<text text-anchor="middle" x="717.47" y="-479.5" font-family="Times,serif" font-size="14.00">&lt;&lt;Interface&gt;&gt;</text>
<text text-anchor="middle" x="717.47" y="-462.7" font-family="Times,serif" font-size="14.00">IERC20</text>
<polyline fill="none" stroke="black" points="502.78,-454.5 932.15,-454.5 "/>
<text text-anchor="start" x="510.78" y="-437.9" font-family="Times,serif" font-size="14.00">External:</text>
<text text-anchor="start" x="510.78" y="-421.1" font-family="Times,serif" font-size="14.00"> &#160;&#160;&#160;&#160;totalSupply(): uint256</text>
<text text-anchor="start" x="510.78" y="-404.3" font-family="Times,serif" font-size="14.00"> &#160;&#160;&#160;&#160;balanceOf(account: address): uint256</text>
<text text-anchor="start" x="510.78" y="-387.5" font-family="Times,serif" font-size="14.00"> &#160;&#160;&#160;&#160;transfer(to: address, value: uint256): bool</text>
<text text-anchor="start" x="510.78" y="-370.7" font-family="Times,serif" font-size="14.00"> &#160;&#160;&#160;&#160;allowance(owner: address, spender: address): uint256</text>
<text text-anchor="start" x="510.78" y="-353.9" font-family="Times,serif" font-size="14.00"> &#160;&#160;&#160;&#160;approve(spender: address, value: uint256): bool</text>
<text text-anchor="start" x="510.78" y="-337.1" font-family="Times,serif" font-size="14.00"> &#160;&#160;&#160;&#160;transferFrom(from: address, to: address, value: uint256): bool</text>
<text text-anchor="start" x="510.78" y="-320.3" font-family="Times,serif" font-size="14.00">Public:</text>
<text text-anchor="start" x="510.78" y="-303.5" font-family="Times,serif" font-size="14.00"> &#160;&#160;&#160;&lt;&lt;event&gt;&gt; Transfer(from: address, to: address, value: uint256)</text>
<text text-anchor="start" x="510.78" y="-286.7" font-family="Times,serif" font-size="14.00"> &#160;&#160;&#160;&lt;&lt;event&gt;&gt; Approval(owner: address, spender: address, value: uint256)</text>
</g>
<!-- 3 -->
<g id="node4" class="node">
<title>3</title>
<polygon fill="#f2f2f2" stroke="black" points="1.91,-120.7 1.91,-220.7 483.02,-220.7 483.02,-120.7 1.91,-120.7"/>
<text text-anchor="middle" x="242.47" y="-204.1" font-family="Times,serif" font-size="14.00">&lt;&lt;Abstract&gt;&gt;</text>
<text text-anchor="middle" x="242.47" y="-187.3" font-family="Times,serif" font-size="14.00">ERC20Recover</text>
<polyline fill="none" stroke="black" points="1.91,-179.1 483.02,-179.1 "/>
<text text-anchor="start" x="9.91" y="-162.5" font-family="Times,serif" font-size="14.00">Public:</text>
<text text-anchor="start" x="9.91" y="-145.7" font-family="Times,serif" font-size="14.00"> &#160;&#160;&#160;constructor(originalOwner: address)</text>
<text text-anchor="start" x="9.91" y="-128.9" font-family="Times,serif" font-size="14.00"> &#160;&#160;&#160;recoverERC20(tokenAddress: address, tokenAmount: uint256) &lt;&lt;onlyOwner&gt;&gt;</text>
</g>
<!-- 3&#45;&gt;1 -->
<g id="edge2" class="edge">
<title>3&#45;&gt;1</title>
<path fill="none" stroke="black" d="M242.47,-220.93C242.47,-223.04 242.47,-225.2 242.47,-227.39"/>
<polygon fill="none" stroke="black" points="231.97,-227.59 242.47,-257.59 252.97,-227.59 231.97,-227.59"/>
</g>
<!-- 3&#45;&gt;2 -->
<g id="edge3" class="edge">
<title>3&#45;&gt;2</title>
<path fill="none" stroke="black" stroke-dasharray="5,2" d="M401.95,-220.8C432.74,-231.74 464.43,-244.04 493.47,-257.2 504.95,-262.41 516.61,-268.02 528.27,-273.9"/>
<polygon fill="black" stroke="black" points="526.68,-277.02 537.18,-278.44 529.86,-270.78 526.68,-277.02"/>
</g>
<!-- 4 -->
<g id="node5" class="node">
<title>4</title>
<polygon fill="#f2f2f2" stroke="black" points="125.81,-0.5 125.81,-83.7 359.13,-83.7 359.13,-0.5 125.81,-0.5"/>
<text text-anchor="middle" x="242.47" y="-67.1" font-family="Times,serif" font-size="14.00">&lt;&lt;Abstract&gt;&gt;</text>
<text text-anchor="middle" x="242.47" y="-50.3" font-family="Times,serif" font-size="14.00">TokenRecover</text>
<polyline fill="none" stroke="black" points="125.81,-42.1 359.13,-42.1 "/>
<text text-anchor="start" x="133.81" y="-25.5" font-family="Times,serif" font-size="14.00">Public:</text>
<text text-anchor="start" x="133.81" y="-8.7" font-family="Times,serif" font-size="14.00"> &#160;&#160;&#160;constructor(originalOwner: address)</text>
</g>
<!-- 4&#45;&gt;3 -->
<g id="edge4" class="edge">
<title>4&#45;&gt;3</title>
<path fill="none" stroke="black" d="M242.47,-83.85C242.47,-86.05 242.47,-88.29 242.47,-90.55"/>
<polygon fill="none" stroke="black" points="231.97,-90.61 242.47,-120.61 252.97,-90.61 231.97,-90.61"/>
</g>
</g>
</svg>
